<?xml version="1.0" encoding="utf-8"?>
<!-- Generator: Adobe Illustrator 21.0.0, SVG Export Plug-In . SVG Version: 6.00 Build 0)  -->
<svg version="1.1" id="Layer_1" xmlns="http://www.w3.org/2000/svg" xmlns:xlink="http://www.w3.org/1999/xlink" x="0px" y="0px"
	 viewBox="0 0 1171.6 1559.3" style="enable-background:new 0 0 1171.6 1559.3;" xml:space="preserve">
<style type="text/css">
	.st0{fill:#2B2A29;}
	.st1{fill:none;stroke:#2B2A29;stroke-width:0.216;stroke-miterlimit:22.9256;}
</style>
<path class="st0" d="M966.1,1419.6l-205.7-134.6c-7.5,11.3-20.7,23.1-38.3,34.9c-26.3,17.6-62.6,35.2-104.5,50.4
	c-43.4,15.8-92.8,29.1-143.4,37.4c-45.4,7.4-91.8,10.8-135.8,8.2c-46.9-2.7-91.3-11.4-131.6-24c-23.4-7.3-45.4-16-65.7-25.5
	l159.6,109.4c31.9,20.6,71.1,39.2,115.4,53.1c39.9,12.5,83.8,21.1,130.2,23.8c43.6,2.5,89.6-0.8,134.6-8.2
	c50.3-8.2,99.4-21.5,142.4-37.1c41.5-15.1,77.4-32.5,103.3-49.8C946.2,1444.4,960,1431.4,966.1,1419.6z M1107.1,464.8
	c-11-39.1-31.2-74.4-58.9-103.8c-10.5-11.2-22.2-21.5-34.8-31l0.2-0.2L847.3,192.7c26.5,32.6,46,70.8,57,113
	c11.3,43.4,13.5,91,4.9,140.9c-0.1,0.5-0.2,1-0.3,1.4c-13.7,79.5-27.6,159.7-41.5,240.3c-9.3,54-18.7,108.2-28.1,162.6
	c-12.5,72.7-25.2,145.8-37.9,219.3c-11.4,66-22.9,132.3-34.4,199c-0.6,3.5-1.9,7.1-3.9,10.8l205.1,134.2c0.4-1.2,0.7-2.4,0.9-3.6
	c11.5-66.7,23-133,34.4-199c12.7-73.5,25.3-146.7,37.9-219.3c9.4-54.4,18.8-108.6,28.1-162.6
	C1082.1,756.8,1132.6,555.9,1107.1,464.8z M707.7,102.9l-0.3-0.1l0.1-0.1c-7.3-8.1-15.1-15.8-23.4-23l-25.2-19.5
	c-14.7-10.1-30.5-18.8-47.4-26.2C573.6,17.5,530.7,8.2,484.4,7.8c-46.1-0.4-91.5,8-134.2,23.4c-44.7,16.1-86.5,40-123.5,69.7
	c-36.7,29.5-68.7,65-93.6,104.7c-23.9,38.2-41.4,80.3-50.3,124.8c-9,44.7-8.6,87.9,0,127.6c8.9,41.1,26.5,78.6,51.3,110.4
	c25.3,32.3,58,59,96.8,78c37.2,18.2,79.9,29.2,126.8,31.1h0c47.4,2.1,94.5-5.4,139.1-20.5c46.4-15.8,90-39.9,128.6-70.5
	c38.6-30.7,71.9-67.8,97.4-109.3c24.6-40,42-84,50.1-130.3c8-45.9,6.1-89.8-4.2-129.7c-10.7-41.6-30.5-78.9-57.5-110.2
	C710.1,105.5,708.9,104.2,707.7,102.9z M197.9,647.8c6.8,12,14.4,23.5,22.8,34.4c26.8,34.7,61.7,63.3,103,83.6
	c39.7,19.5,85.4,31.4,135.5,33.7c50.7,2.2,101.2-5.7,149.1-21.9c49.6-16.8,96.3-42.6,137.5-75.4c41.3-32.8,76.9-72.6,104.2-117.1
	c26-42.3,44.5-89,53.2-138l0.4-2.6h0c8.3-48.7,6-95.1-5-137.4c-11.6-44.5-32.8-84.4-61.8-117.8c-9-10.4-18.8-20.2-29.4-29.3l-10-8.3
	c-17.1-13.5-36-25.3-56.2-35l43,33.1l0.3,0.2c17.4,12.7,33.1,27.2,47,43.3c19.8,22.8,36,48.8,47.8,77.3c5.2,12.5,9.6,25.6,13,39
	c10.9,42.1,13,88.3,4.6,136.6c-1.1,6.4-2.4,12.8-3.8,19.1c-9.5,41.8-26.3,81.6-48.7,118.1c-26.8,43.6-61.7,82.5-102.2,114.7
	c-34.3,27.3-72.5,49.6-113,65.9c-7.2,2.9-14.5,5.6-21.9,8.1c-46.9,15.9-96.5,23.7-146.4,21.6c-3.8-0.2-7.5-0.4-11.2-0.7
	c-44.9-3.3-86-14.6-122.2-32.3c-1.1-0.5-2.1-1.1-3.2-1.7l0,0c-19.8-10-49.5-30.9-66-44.6l0,0L197.9,647.8z M135.9,579.5
	c-13.7,67.4-27.4,135.4-41.2,203.7C87.2,820,79.7,857,72.2,894.1c-12.1,59.8-24.3,120-36.6,180.5c-9.7,47.7-19.4,95.6-29.1,143.7
	l0,0c-3.2,15.9,3.4,34.9,18.1,54.7c15,20.3,38.4,41.2,68.3,60.5c31.9,20.6,71.1,39.2,115.5,53.1c39.9,12.5,83.8,21.1,130.2,23.8
	c43.6,2.5,89.6-0.8,134.6-8.2c50.3-8.2,99.4-21.5,142.4-37.1c41.5-15.1,77.4-32.5,103.3-49.8c24.7-16.5,40.3-32.9,42.7-46.8
	c11.5-66.7,23-133,34.4-199c12.7-73.5,25.3-146.7,37.9-219.3c9.4-54.4,18.8-108.6,28.1-162.6c10.2-59.4,20.4-118.5,30.6-177.3
	c-9.7,27.2-22.3,53.3-37.5,78c-27.7,45-63.7,85.3-105.6,118.5c-41.7,33.2-89,59.3-139.2,76.3c-48.5,16.5-99.6,24.5-151.1,22.2
	c-50.9-2.3-97.4-14.4-137.8-34.2c-42.1-20.7-77.7-49.9-105-85.2c-12.9-16.7-24-34.8-33.2-54.1l-36.3-39.8
	C143.1,587.8,139.4,583.7,135.9,579.5z M1063.5,897.6c52.4-45.5,90.3-107,102.1-174.9c12.1-69.8-5.5-133.4-43.7-180.2
	c0,0.2-2.4-53.8-9.5-79.2c-11.2-40-31.9-76-60.3-106.1c-9.5-10.1-19.8-19.5-31-28.2L811.6,156c-23.1-20-49.6-36.7-78.9-49.4
	c-3.2-1.4-6.5-2.8-9.8-4.1l-35.3-27.2c-21.7-18.8-46.5-34.4-73.9-46.4C575.2,12,531.6,2.5,484.5,2.1c-46.8-0.4-92.8,8.1-136.2,23.8
	C303,42.2,260.6,66.4,223.2,96.5c-37.2,29.9-69.5,65.9-94.8,106.1c-24.3,38.8-42,81.5-51.1,126.6c-9.2,45.5-8.8,89.4,0,129.9
	c9,42,27,80.2,52.4,112.7c1.1,1.4,2.2,2.8,3.3,4.2l-2.1-0.4c-13.8,68.3-27.8,137.2-41.8,206.5c-7.5,36.8-14.9,73.8-22.4,110.9
	c-12.1,59.8-24.3,120-36.6,180.5c-9.9,48.7-19.8,97.6-29.7,146.7l0.1,0c-2.2,16.9,4.8,36.2,19.6,56.1c15.4,20.8,39.3,42.2,69.8,61.9
	l207.6,142.4l0,0l0.1,0c32.3,20.8,72,39.7,116.8,53.7c40.3,12.6,84.7,21.3,131.6,24c44,2.6,90.4-0.8,135.8-8.2
	c50.7-8.3,100.1-21.6,143.4-37.4c41.9-15.3,78.2-32.8,104.5-50.4c26-17.4,42.4-35,45.1-50.6c11.5-66.7,23-133,34.4-199
	c12.7-73.5,25.3-146.7,37.9-219.3C1052.5,961.4,1058,929.4,1063.5,897.6z M827.4,197.1c18.7,21.5,34,45.9,45.4,72.5
	c5.7,13.3,10.5,27.2,14.2,41.5c10.7,41.4,12.7,86.7,4.5,134.3c-1.2,7.1-2.7,14.1-4.3,21.1c-9.5,40.4-25.8,78.8-47.4,114.1
	c-26.4,43-60.9,81.4-100.9,113.2c-33.3,26.5-70.3,48.2-109.5,64.2c-7.8,3.2-15.7,6.1-23.6,8.8c-46.3,15.7-95.2,23.4-144.3,21.3
	c-5.5-0.2-10.9-0.6-16.2-1.1c-42.2-3.7-80.8-14.6-114.9-31.3c-1.3-0.6-2.6-1.3-3.9-1.9l0,0c-19-9.7-47.9-30.1-63.9-43.2l0,0
	l-74.8-83.2c12.7,9,26.3,17.1,40.7,24.2c37.9,18.5,81.3,29.7,129,31.7v0c48.1,2.1,95.9-5.4,141.2-20.8c47-16,91.2-40.4,130.3-71.5
	c39.1-31.1,72.9-68.7,98.8-110.8c24.9-40.5,42.6-85.3,50.8-132.4c8.1-46.7,6.1-91.3-4.3-132.1c-10.5-40.8-29.5-77.6-55.5-108.7
	c0.4,0.2,0.9,0.3,1.3,0.5l60.6,46.7C797.9,166.8,813.6,181.2,827.4,197.1z"/>
<path class="st1" d="M966.1,1419.6l-205.7-134.6c-7.5,11.3-20.7,23.1-38.3,34.9c-26.3,17.6-62.6,35.2-104.5,50.4
	c-43.4,15.8-92.8,29.1-143.4,37.4c-45.4,7.4-91.8,10.8-135.8,8.2c-46.9-2.7-91.3-11.4-131.6-24c-23.4-7.3-45.4-16-65.7-25.5
	l159.6,109.4c31.9,20.6,71.1,39.2,115.4,53.1c39.9,12.5,83.8,21.1,130.2,23.8c43.6,2.5,89.6-0.8,134.6-8.2
	c50.3-8.2,99.4-21.5,142.4-37.1c41.5-15.1,77.4-32.5,103.3-49.8C946.2,1444.4,960,1431.4,966.1,1419.6z M1107.1,464.8
	c-11-39.1-31.2-74.4-58.9-103.8c-10.5-11.2-22.2-21.5-34.8-31l0.2-0.2L847.3,192.7c26.5,32.6,46,70.8,57,113
	c11.3,43.4,13.5,91,4.9,140.9c-0.1,0.5-0.2,1-0.3,1.4c-13.7,79.5-27.6,159.7-41.5,240.3c-9.3,54-18.7,108.2-28.1,162.6
	c-12.5,72.7-25.2,145.8-37.9,219.3c-11.4,66-22.9,132.3-34.4,199c-0.6,3.5-1.9,7.1-3.9,10.8l205.1,134.2c0.4-1.2,0.7-2.4,0.9-3.6
	c11.5-66.7,23-133,34.4-199c12.7-73.5,25.3-146.7,37.9-219.3c9.4-54.4,18.8-108.6,28.1-162.6
	C1082.1,756.8,1132.6,555.9,1107.1,464.8z M707.7,102.9l-0.3-0.1l0.1-0.1c-7.3-8.1-15.1-15.8-23.4-23l-25.2-19.5
	c-14.7-10.1-30.5-18.8-47.4-26.2C573.6,17.5,530.7,8.2,484.4,7.8c-46.1-0.4-91.5,8-134.2,23.4c-44.7,16.1-86.5,40-123.5,69.7
	c-36.7,29.5-68.7,65-93.6,104.7c-23.9,38.2-41.4,80.3-50.3,124.8c-9,44.7-8.6,87.9,0,127.6c8.9,41.1,26.5,78.6,51.3,110.4
	c25.3,32.3,58,59,96.8,78c37.2,18.2,79.9,29.2,126.8,31.1h0c47.4,2.1,94.5-5.4,139.1-20.5c46.4-15.8,90-39.9,128.6-70.5
	c38.6-30.7,71.9-67.8,97.4-109.3c24.6-40,42-84,50.1-130.3c8-45.9,6.1-89.8-4.2-129.7c-10.7-41.6-30.5-78.9-57.5-110.2
	C710.1,105.5,708.9,104.2,707.7,102.9z M197.9,647.8c6.8,12,14.4,23.5,22.8,34.4c26.8,34.7,61.7,63.3,103,83.6
	c39.7,19.5,85.4,31.4,135.5,33.7c50.7,2.2,101.2-5.7,149.1-21.9c49.6-16.8,96.3-42.6,137.5-75.4c41.3-32.8,76.9-72.6,104.2-117.1
	c26-42.3,44.5-89,53.2-138l0.4-2.6h0c8.3-48.7,6-95.1-5-137.4c-11.6-44.5-32.8-84.4-61.8-117.8c-9-10.4-18.8-20.2-29.4-29.3l-10-8.3
	c-17.1-13.5-36-25.3-56.2-35l43,33.1l0.3,0.2c17.4,12.7,33.1,27.2,47,43.3c19.8,22.8,36,48.8,47.8,77.3c5.2,12.5,9.6,25.6,13,39
	c10.9,42.1,13,88.3,4.6,136.6c-1.1,6.4-2.4,12.8-3.8,19.1c-9.5,41.8-26.3,81.6-48.7,118.1c-26.8,43.6-61.7,82.5-102.2,114.7
	c-34.3,27.3-72.5,49.6-113,65.9c-7.2,2.9-14.5,5.6-21.9,8.1c-46.9,15.9-96.5,23.7-146.4,21.6c-3.8-0.2-7.5-0.4-11.2-0.7
	c-44.9-3.3-86-14.6-122.2-32.3c-1.1-0.5-2.1-1.1-3.2-1.7l0,0c-19.8-10-49.5-30.9-66-44.6l0,0L197.9,647.8z M135.9,579.5
	c-13.7,67.4-27.4,135.4-41.2,203.7C87.2,820,79.7,857,72.2,894.1c-12.1,59.8-24.3,120-36.6,180.5c-9.7,47.7-19.4,95.6-29.1,143.7
	l0,0c-3.2,15.9,3.4,34.9,18.1,54.7c15,20.3,38.4,41.2,68.3,60.5c31.9,20.6,71.1,39.2,115.5,53.1c39.9,12.5,83.8,21.1,130.2,23.8
	c43.6,2.5,89.6-0.8,134.6-8.2c50.3-8.2,99.4-21.5,142.4-37.1c41.5-15.1,77.4-32.5,103.3-49.8c24.7-16.5,40.3-32.9,42.7-46.8
	c11.5-66.7,23-133,34.4-199c12.7-73.5,25.3-146.7,37.9-219.3c9.4-54.4,18.8-108.6,28.1-162.6c10.2-59.4,20.4-118.5,30.6-177.3
	c-9.7,27.2-22.3,53.3-37.5,78c-27.7,45-63.7,85.3-105.6,118.5c-41.7,33.2-89,59.3-139.2,76.3c-48.5,16.5-99.6,24.5-151.1,22.2
	c-50.9-2.3-97.4-14.4-137.8-34.2c-42.1-20.7-77.7-49.9-105-85.2c-12.9-16.7-24-34.8-33.2-54.1l-36.3-39.8
	C143.1,587.8,139.4,583.7,135.9,579.5z M1063.5,897.6c52.4-45.5,90.3-107,102.1-174.9c12.1-69.8-5.5-133.4-43.7-180.2
	c0,0.2-2.4-53.8-9.5-79.2c-11.2-40-31.9-76-60.3-106.1c-9.5-10.1-19.8-19.5-31-28.2L811.6,156c-23.1-20-49.6-36.7-78.9-49.4
	c-3.2-1.4-6.5-2.8-9.8-4.1l-35.3-27.2c-21.7-18.8-46.5-34.4-73.9-46.4C575.2,12,531.6,2.5,484.5,2.1c-46.8-0.4-92.8,8.1-136.2,23.8
	C303,42.2,260.6,66.4,223.2,96.5c-37.2,29.9-69.5,65.9-94.8,106.1c-24.3,38.8-42,81.5-51.1,126.6c-9.2,45.5-8.8,89.4,0,129.9
	c9,42,27,80.2,52.4,112.7c1.1,1.4,2.2,2.8,3.3,4.2l-2.1-0.4c-13.8,68.3-27.8,137.2-41.8,206.5c-7.5,36.8-14.9,73.8-22.4,110.9
	c-12.1,59.8-24.3,120-36.6,180.5c-9.9,48.7-19.8,97.6-29.7,146.7l0.1,0c-2.2,16.9,4.8,36.2,19.6,56.1c15.4,20.8,39.3,42.2,69.8,61.9
	l207.6,142.4l0,0l0.1,0c32.3,20.8,72,39.7,116.8,53.7c40.3,12.6,84.7,21.3,131.6,24c44,2.6,90.4-0.8,135.8-8.2
	c50.7-8.3,100.1-21.6,143.4-37.4c41.9-15.3,78.2-32.8,104.5-50.4c26-17.4,42.4-35,45.1-50.6c11.5-66.7,23-133,34.4-199
	c12.7-73.5,25.3-146.7,37.9-219.3C1052.5,961.4,1058,929.4,1063.5,897.6z M827.4,197.1c18.7,21.5,34,45.9,45.4,72.5
	c5.7,13.3,10.5,27.2,14.2,41.5c10.7,41.4,12.7,86.7,4.5,134.3c-1.2,7.1-2.7,14.1-4.3,21.1c-9.5,40.4-25.8,78.8-47.4,114.1
	c-26.4,43-60.9,81.4-100.9,113.2c-33.3,26.5-70.3,48.2-109.5,64.2c-7.8,3.2-15.7,6.1-23.6,8.8c-46.3,15.7-95.2,23.4-144.3,21.3
	c-5.5-0.2-10.9-0.6-16.2-1.1c-42.2-3.7-80.8-14.6-114.9-31.3c-1.3-0.6-2.6-1.3-3.9-1.9l0,0c-19-9.7-47.9-30.1-63.9-43.2l0,0
	l-74.8-83.2c12.7,9,26.3,17.1,40.7,24.2c37.9,18.5,81.3,29.7,129,31.7v0c48.1,2.1,95.9-5.4,141.2-20.8c47-16,91.2-40.4,130.3-71.5
	c39.1-31.1,72.9-68.7,98.8-110.8c24.9-40.5,42.6-85.3,50.8-132.4c8.1-46.7,6.1-91.3-4.3-132.1c-10.5-40.8-29.5-77.6-55.5-108.7
	c0.4,0.2,0.9,0.3,1.3,0.5l60.6,46.7C797.9,166.8,813.6,181.2,827.4,197.1z"/>
<path class="st0" d="M223.7,442.3c24.3-65.6,65.6-135.5,111.3-188.8l-50.9,182l-0.3,0l-1.4,0l-0.2,0L223.7,442.3z M416,658.7
	c25.6-3.1,50.9-9,75.3-17.3c44-15,85.4-37.9,121.9-66.9c36.6-29.1,68.2-64.3,92.4-103.7c23.3-37.9,39.8-79.7,47.5-123.6
	c6.2-35.8,6.1-70.2,0.5-102.3c-34.4,1-68.2,6.9-100.7,17c-50,15.5-96.8,41-137.5,73.7c-7.7,6.2-15.2,12.7-22.5,19.4l0.6,0.4l-0.2,1
	l-42.1,166.9l-2,4.9l-31.4,2.4l-4.3,0.3v0l-31.2,3l-0.9,0.1l-0.2-0.1c-0.9,3.2-1.8,6.5-2.6,9.8c-2.4,14-3.3,24.1-2.6,30.4l0.9,0.4
	l6.1,2.9l15.3,7.2l4.2,2l27.6,13l1.1,0.5l-0.3,1.1L416,658.7z M232,627.7c2.4,1.2,4.8,2.5,7.2,3.6c35.3,17.2,75.8,27.7,120.2,29.5h0
	c18,0.8,35.9,0.1,53.6-1.9l15-57.7l-26.5-12.5l-4.2-2l-15.3-7.2l-6.1-2.9L262,523l-2.3,8L232,627.7z M197.6,606.2
	c10,7.4,20.7,14.1,31.9,20.2l27.6-96.2l2.2-7.8h-52.9c-1.2,6.5-2.4,13-3.3,19.5c-1.1,6.9-1.9,13.8-2.7,20.5
	c-0.9,7.8-1.5,15.5-2,23.2C198,592.5,197.7,599.4,197.6,606.2z M479.7,20.1c44.7,0.4,86.1,9.4,122.7,25.4
	c38,16.6,70.7,40.7,96.6,70.5c26.2,30.2,45.4,66.5,55.7,106.8c10,38.7,11.8,81,4.1,125.4c-7.8,44.7-24.6,87.2-48.2,125.6
	c-24.6,40-56.6,75.6-93.7,105.1c-37,29.4-79,52.7-123.6,67.8c-43,14.6-88.3,21.8-134,19.8v0c-45.3-1.9-86.5-12.5-122.5-30.1
	c-37.5-18.3-69.3-44.2-93.8-75.5c-24.1-30.9-41.2-67.2-49.8-107c-8.3-38.4-8.7-80.1,0-123.3c8.6-42.8,25.4-83.4,48.5-120.2
	c24-38.2,54.7-72.4,90-100.7c35.5-28.5,75.7-51.5,118.7-67C391.6,27.8,435.2,19.7,479.7,20.1z M406.1,505.8l-93.6-49.2l-29.1-15.3
	l-0.2-0.1l-0.5,0L232,447l150.8,80.9l30.4-2.9l0.1,0l4.3-0.3l21.5-1.6l-18.3-9.6l-1.4-0.7L406.1,505.8z"/>
<path class="st0" d="M186.1,1230.9c6-3.6,11.3-10.3,15.1-18.5c3.9-8.2,6.3-17.9,6.5-27.5c0.1-6.4-0.8-13.3-2.8-18
	c-2-4.9-4.9-8.9-8.7-11c-1.8-1-3.4-1.5-5.5-1.9c-4.1-0.7-8.7,0.5-12.8,2.4c-1.7,0.7-4.2,2.1-5.6,3.3c-2.7,2.2-3.6,2.7-6.4,5.6
	c-0.4,0.4-0.9,0.9-1.3,1.3c-2.6,2.9-4.5,5.2-6.9,8.9c-6.7,10.1-11.2,22.3-13.5,34.6c-2.3,12.2-2.3,24.4-0.2,34.6
	c0.2,1,1.3,5.4,1.8,6.3c0.4,1,0.8,1.9,1.1,2.9c0.4,1.1,0.8,1.8,1.3,2.8c1.4,3.1,4,6.7,6.6,9.1c11.8,11.2,30,6.7,45.3-7.2
	c0.9-0.8,5.5-5.4,6.2-6.3c0.5-0.6,0.7-0.9,1.2-1.4c1.3-1.5,1-1.1,2.4-2.9c0.7-1,1.5-2,2.3-3c2.1-2.9,4.7-6.9,6.6-10.3
	c3-5.4,5.8-11.4,8.2-17.6c2.4-6.2,4.3-12.7,5.6-19.3c-0.3,0.6-2,6.4-2.5,7.8c-4.3,12.1-9.2,21.8-15.9,31.3c-1.4,2-2.3,3.1-3.6,4.8
	c-1.4,1.9-2.6,2.9-3.9,4.4c-0.5,0.6-1.3,1.4-2,2c-11.8,11.6-23.8,17-35.4,14.5c-5.9-1.3-10.7-5.9-13.5-10.9
	c-2.5-4.6-4.2-9.4-5.1-14.9c-0.9-5.5-1-11.8-0.3-19.1c0.4-4.4,1.9-12.4,3.4-16.8c3-9,5.5-13.6,10-20.1c2.1-2.9,4.4-5.3,6.7-7.5
	c1.3-1.2,2.9-2.4,4.4-3.3c7-4.2,13.4-5,18.7-0.8c1.6,1.4,2.9,3.3,3.9,5.4c1.6,3.3,2.6,8.5,2.7,14c-0.1,4.9-1,10.9-2.8,16.1
	c-6.8,20-25.9,27.6-27.8,8.3c-0.6-6.4,1.5-15.5,6-20.6c0.3-0.4,0.6-0.6,0.9-0.9c5.9-6.2,12.6-4,12.6,5.1c0,16.1-15.4,22.1-13.5,6.7
	c-1.6,6.2,0.6,11.4,4.9,10.9c6.3-0.7,11.6-11.2,11.3-20.5c-0.3-8.7-5-13.3-11.5-10.9c-7.3,2.8-14.8,13.8-16.1,28.3
	c-1,11.3,2.8,20.5,9.5,22.5C177.7,1234.6,182.2,1233.3,186.1,1230.9L186.1,1230.9"/>
<path d="M550.8,526.9c0.6,0,1.3,0,1.9,0c2.9,0,5.6,0.3,8.2,0.9l0.3,0.3c3,3.4,5.1,7.5,6.3,12c1.1,4.4,1.3,9.2,0.5,14.2
	c-0.9,5.1-2.8,10-5.5,14.4c-2.8,4.6-6.5,8.7-10.8,12.1c-4.3,3.4-9.1,6.1-14.2,7.8c-4.2,1.4-8.7,2.2-13.1,2.3h0c-1.1,0-2.1,0-3.2,0h0
	c-4.4-0.2-8.5-1.1-12.1-2.6c-4-6.8-5.5-15.2-3.6-24.2c2.1-10.5,8.3-19.8,16.6-26.5C530,531.1,540.2,527,550.8,526.9 M551.4,517.6
	c-4.5-2-9.6-3.1-15.1-3.1c-5.4,0-10.8,0.9-15.8,2.8c-5.2,1.9-10.2,4.7-14.5,8.2c-4.3,3.5-8,7.6-11,12.3c-2.8,4.5-4.9,9.5-5.9,14.7
	c-1.1,5.3-1,10.4,0,15.1c1.1,4.9,3.2,9.4,6.1,13.2c3,3.9,6.9,7.1,11.6,9.3c4.4,2.2,9.5,3.5,15,3.7c5.6,0.2,11.1-0.6,16.4-2.4
	c5.4-1.8,10.6-4.7,15.1-8.3c4.5-3.6,8.4-8,11.4-12.8c2.9-4.7,4.9-9.9,5.9-15.4c0.9-5.4,0.7-10.6-0.5-15.4c-1.3-5-3.6-9.4-6.9-13.2
	C560.1,522.6,556.1,519.6,551.4,517.6z"/>
</svg>
