<?xml version="1.0" encoding="utf-8"?>
<!-- Generator: Adobe Illustrator 21.0.0, SVG Export Plug-In . SVG Version: 6.00 Build 0)  -->
<svg version="1.1" id="Layer_1" xmlns="http://www.w3.org/2000/svg" xmlns:xlink="http://www.w3.org/1999/xlink" x="0px" y="0px"
	 viewBox="0 0 320 330" style="enable-background:new 0 0 320 330;" xml:space="preserve">
<style type="text/css">
	.st0{fill:none;stroke:#000000;stroke-width:6;stroke-miterlimit:10;}
	.st1{fill:none;stroke:#000000;stroke-width:2;stroke-miterlimit:10;}
	.st2{fill:none;stroke:#000000;stroke-width:4;stroke-miterlimit:10;}
	.st3{fill:#7BC2C4;stroke:#000000;stroke-miterlimit:10;}
	.st4{fill:#7BC2C4;stroke:#000000;stroke-width:2;stroke-miterlimit:10;}
</style>
<path id="path7035" class="st0" d="M275.2,192.8c0,13.9-11.3,25.2-25.2,25.2H87.2C73.3,218,62,206.7,62,192.8V30.1
	C62,16.2,73.3,4.8,87.2,4.8h162.9c13.9,0,25.2,11.3,25.2,25.2v162.7l0,0h-0.1V192.8z M168.5,15L168.5,15c52.9,0,96,42.9,96,96
	c0,52.9-42.8,91.6-95.6,91.6S72.8,164.1,72.8,111C72.7,58,115.6,15,168.5,15z"/>
<circle id="circle7045" class="st1" cx="122.9" cy="108.6" r="21.6"/>
<circle id="circle7045_1_" class="st1" cx="217.9" cy="108.6" r="21.6"/>
<g transform="translate(0, 0 )">
	<path id="path7043" class="st2" d="M167.1,238.7c0,0,10.3,37.3-22.1,45.9c-24.2,8-13.3,33.5,4.4,40.5"/>
	<path id="path7051" class="st3" d="M106.6,94.7H92.5c-10,0-18.3,7.7-18.3,17.4s8.2,17.5,18.3,17.5h5.1
		c3.5,54.2,23.6,72.8,51.7,77.7V234c0,9.7,9.1,14.4,19.2,14.4s17.1-4.7,17.1-14.4v-26.7c29.5-5.3,53.2-25.5,57.4-77.7h1.5
		c10.1,0,18.3-7.9,18.3-17.5c0-9.7-8.2-17.4-18.3-17.4h-14.1L194,94.9l-50.9-0.2L106.6,94.7L106.6,94.7z"/>
	<line id="line7055" class="st1" x1="149.3" y1="225" x2="168.5" y2="225"/>
	<line id="line7057" class="st1" x1="146.1" y1="231.5" x2="168.5" y2="231.5"/>
	<circle id="circle7059" class="st4" cx="122.9" cy="104.6" r="13.4"/>
	<circle id="circle7061" class="st4" cx="217.9" cy="104.6" r="13.4"/>
</g>
</svg>
