<?xml version="1.0" encoding="utf-8"?>
<!-- Generator: Adobe Illustrator 21.0.0, SVG Export Plug-In . SVG Version: 6.00 Build 0)  -->
<svg version="1.1" id="Layer_1" xmlns="http://www.w3.org/2000/svg" xmlns:xlink="http://www.w3.org/1999/xlink" x="0px" y="0px"
	 viewBox="0 0 100 100" style="enable-background:new 0 0 100 100;" xml:space="preserve">
<style type="text/css">
	.st0{fill:none;stroke:#000000;stroke-width:15;}
</style>
<path class="st0" d="M22.1,83.1C14.3,75.6,10,65.3,10,54.5c0-22.1,17.9-40,40-40s40,17.9,40,40l0,0c0,10.7-4.3,20.9-11.9,28.4"/>
<g>
	<path d="M67.4,69.7L67.4,69.7c-0.8,0.8-2.2,0.8-3-0.1l-3.6-3.8c-0.8-0.8-0.8-2.2,0.1-3l0,0c0.8-0.8,2.2-0.8,3,0.1l3.6,3.8
		C68.3,67.6,68.2,68.9,67.4,69.7z"/>
	<path d="M74.2,52.8L74.2,52.8c0,1.2-0.9,2.1-2.1,2.1h-5.3c-1.2,0-2.1-0.9-2.1-2.1l0,0c0-1.2,0.9-2.1,2.1-2.1h5.3
		C73.3,50.7,74.2,51.6,74.2,52.8z"/>
	<path d="M35.2,52.8L35.2,52.8c0,1.2-0.9,2.1-2.1,2.1h-5.3c-1.1-0.1-2.1-1-2.1-2.2l0,0c0-1.2,0.9-2.1,2.1-2.1h5.3
		C34.4,50.7,35.2,51.6,35.2,52.8z"/>
	<path d="M39.3,42.3L39.3,42.3c-0.8,0.8-2.2,0.8-3-0.1l-3.6-3.8c-0.8-0.8-0.8-2.2,0.1-3l0,0c0.8-0.8,2.2-0.8,3,0.1l3.6,3.8
		C40.2,40.1,40.2,41.5,39.3,42.3z"/>
	<path d="M50.1,28.5L50.1,28.5c1.2,0,2.1,1,2.1,2.1v5.3c0,1.2-1,2.1-2.1,2.1l0,0c-1.2,0-2.1-1-2.1-2.1v-5.3
		C48,29.4,49,28.5,50.1,28.5z"/>
	<path d="M67.6,36L67.6,36c0.8,0.8,0.8,2.2,0,3l-3.8,3.7c-0.8,0.8-2.2,0.8-3,0l0,0c-0.8-0.8-0.8-2.2,0-3l3.8-3.7
		C65.5,35.2,66.8,35.2,67.6,36z"/>
	<path d="M40.1,63.6L40.1,63.6c0.8,0.8,0.8,2.2,0,3l-3.8,3.7c-0.8,0.8-2.2,0.8-3,0l0,0c-0.8-0.8-0.8-2.2,0-3l3.8-3.7
		C37.9,62.8,39.2,62.8,40.1,63.6z"/>
	<path d="M50.1,67.5L50.1,67.5c1.2,0,2.1,1,2.1,2.1v5.3c0,1.2-1,2.1-2.1,2.1l0,0c-1.2,0-2.1-1-2.1-2.1v-5.3
		C48,68.4,49,67.5,50.1,67.5z"/>
	<circle id="solarcircle" cx="50.1" cy="52.7" r="12"/>
</g>
</svg>
