<?xml version="1.0" encoding="utf-8"?>
<!-- Generator: Adobe Illustrator 21.0.0, SVG Export Plug-In . SVG Version: 6.00 Build 0)  -->
<svg version="1.1" xmlns="http://www.w3.org/2000/svg" xmlns:xlink="http://www.w3.org/1999/xlink" x="0px" y="0px"
	 viewBox="0 0 356.8 491.8" style="enable-background:new 0 0 356.8 491.8;" xml:space="preserve">
<g id="Layer_3">
	<ellipse id="ellipse7" cx="152.5" cy="109.9" rx="14.2" ry="43.4"/>
	<path id="path11" d="M28.3,238.2c15.4,0,27.8,12.4,27.8,27.8c0,4.8-1.2,9.2-3.3,13.2l74.3,52.6c6.2-6.3,14.8-10.3,24.4-10.3
		c9.3,0,17.7,3.7,23.8,9.7l135.8-147.5c-6.4-5.1-10.4-12.9-10.4-21.7c0-15.4,12.4-27.8,27.8-27.8s27.8,12.4,27.8,27.8
		s-12.4,27.8-27.8,27.8c-4.4,0-8.6-1.1-12.3-2.9l-137,148.8c4,5.6,6.4,12.5,6.4,19.9c0,7.2-2.2,13.9-6,19.4l-4.1,4.9
		c-0.7,0.7-1.5,1.4-2.3,2l47,57.5c4.3-2.7,9.5-4.3,15-4.3c15.5,0,28.1,12.6,28.1,28.1s-12.6,28.1-28.1,28.1s-28.1-12.6-28.1-28.1
		c0-7.9,3.3-15,8.5-20.1l-47.2-57.8c-5,2.9-10.8,4.5-16.9,4.5c-6.7,0-13-2-18.3-5.3l-28.7,38.2c6.9,5.1,11.3,13.3,11.3,22.5
		c0,15.5-12.6,28.1-28.1,28.1s-28.1-12.6-28.1-28.1s12.6-28.1,28.1-28.1c4.2,0,8.2,0.9,11.8,2.6l29.1-38.7c-1.4-1.2-2.6-2.5-3.8-4
		l-3.3-4.9c-2.7-4.9-4.3-10.5-4.3-16.5c0-7.2,2.2-13.8,6-19.3L49.4,284c-5.1,6-12.7,9.8-21.1,9.8c-15.4,0-27.8-12.4-27.8-27.8
		S12.9,238.2,28.3,238.2z"/>
</g>
<g id="Layer_2">
	<g>
		<path d="M241.8,35.5l-3.2-21.4L227.4,24C206,9.2,180,0.5,151.8,0.5c-27.1,0-52.2,8.1-73.2,21.9L67,13.2l-2.6,20.1
			C37.1,57.2,19.8,92.1,19.8,131c0,72.1,59.1,130.5,132.1,130.5S284,203.1,284,131C284,93.3,267.8,59.3,241.8,35.5z M151.6,220.3
			c-13.8,0-25.6-4.1-29.7-9.9c0,0,15.5,6.2,30.2,6.3l29.2-6.3C177.1,216.1,165.4,220.3,151.6,220.3z M151.9,183.7
			c-24.7,0-44.7-32.1-44.7-71.7s20-71.7,44.7-71.7s44.7,32.1,44.7,71.7S176.6,183.7,151.9,183.7z"/>
	</g>
</g>
</svg>
