<?xml version="1.0" encoding="utf-8"?>
<!-- Generator: Adobe Illustrator 18.0.0, SVG Export Plug-In . SVG Version: 6.00 Build 0)  -->
<!DOCTYPE svg PUBLIC "-//W3C//DTD SVG 1.1//EN" "http://www.w3.org/Graphics/SVG/1.1/DTD/svg11.dtd">
<svg version="1.1" id="Laag_1" xmlns="http://www.w3.org/2000/svg" xmlns:xlink="http://www.w3.org/1999/xlink" x="0px" y="0px"
	 viewBox="0 0 356.8 491.8" enable-background="new 0 0 356.8 491.8" xml:space="preserve">
<path fill="#FFFFFF" stroke="#000000" stroke-miterlimit="10" d="M64.4,33.3l2.6-20.1l11.6,9.2c21-13.8,46.1-21.9,73.2-21.9
	C180,0.5,206,9.2,227.4,24l11.2-9.9l3.2,21.4C267.8,59.3,284,93.3,284,131c0,72.1-59.1,130.5-132.1,130.5
	c-73,0-132.1-58.4-132.1-130.5C19.8,92.1,37.1,57.2,64.4,33.3z"/>
<ellipse fill="#FFFFFF" stroke="#000000" stroke-miterlimit="10" cx="151.9" cy="112" rx="44.7" ry="71.7"/>
<ellipse fill="#FFFFFF" stroke="#000000" stroke-miterlimit="10" cx="152.5" cy="109.9" rx="14.2" ry="43.4"/>
<path fill="#FFFFFF" stroke="#000000" stroke-miterlimit="10" d="M181.3,210.4c-4.2,5.7-15.9,9.9-29.7,9.9s-25.6-4.1-29.7-9.9"/>
<path fill="#FFFFFF" stroke="#000000" stroke-miterlimit="10" d="M28.3,238.2c15.4,0,27.8,12.4,27.8,27.8c0,4.8-1.2,9.2-3.3,13.2
	l74.3,52.6c6.2-6.3,14.8-10.3,24.4-10.3c9.3,0,17.7,3.7,23.8,9.7l135.8-147.5c-6.4-5.1-10.4-12.9-10.4-21.7
	c0-15.4,12.4-27.8,27.8-27.8c15.4,0,27.8,12.4,27.8,27.8c0,15.4-12.4,27.8-27.8,27.8c-4.4,0-8.6-1.1-12.3-2.9l-137,148.8
	c4,5.6,6.4,12.5,6.4,19.9c0,7.2-2.2,13.9-6,19.4l-4.1,4.9c-0.7,0.7-1.5,1.4-2.3,2l47,57.5c4.3-2.7,9.5-4.3,15-4.3
	c15.5,0,28.1,12.6,28.1,28.1s-12.6,28.1-28.1,28.1c-15.5,0-28.1-12.6-28.1-28.1c0-7.9,3.3-15,8.5-20.1l-47.2-57.8
	c-5,2.9-10.8,4.5-16.9,4.5c-6.7,0-13-2-18.3-5.3l-28.7,38.2c6.9,5.1,11.3,13.3,11.3,22.5c0,15.5-12.6,28.1-28.1,28.1
	s-28.1-12.6-28.1-28.1c0-15.5,12.6-28.1,28.1-28.1c4.2,0,8.2,0.9,11.8,2.6l29.1-38.7c-1.4-1.2-2.6-2.5-3.8-4l-3.3-4.9
	c-2.7-4.9-4.3-10.5-4.3-16.5c0-7.2,2.2-13.8,6-19.3L49.4,284c-5.1,6-12.7,9.8-21.1,9.8c-15.4,0-27.8-12.4-27.8-27.8
	C0.5,250.6,12.9,238.2,28.3,238.2z"/>
</svg>
