<?xml version="1.0" encoding="UTF-8" standalone="no"?>
<svg
   xmlns:dc="http://purl.org/dc/elements/1.1/"
   xmlns:cc="http://creativecommons.org/ns#"
   xmlns:rdf="http://www.w3.org/1999/02/22-rdf-syntax-ns#"
   xmlns:svg="http://www.w3.org/2000/svg"
   xmlns="http://www.w3.org/2000/svg"
   xml:space="preserve"
   enable-background="new 0 0 356.8 491.8"
   viewBox="0 0 356.8 491.8"
   y="0px"
   x="0px"
   id="Laag_1"
   version="1.1"><metadata
     id="metadata17"><rdf:RDF><cc:Work
         rdf:about=""><dc:format>image/svg+xml</dc:format><dc:type
           rdf:resource="http://purl.org/dc/dcmitype/StillImage" /><dc:title></dc:title></cc:Work></rdf:RDF></metadata><defs
     id="defs15" /><path
     style="fill:#89c4d6;stroke:none;stroke-miterlimit:10"
     id="path3"
     d="M 64.4,33.3 67,13.2 78.6,22.4 C 99.6,8.6 124.7,0.5 151.8,0.5 180,0.5 206,9.2 227.4,24 l 11.2,-9.9 3.2,21.4 c 26,23.8 42.2,57.8 42.2,95.5 0,72.1 -59.1,130.5 -132.1,130.5 -73,0 -132.1,-58.4 -132.1,-130.5 0,-38.9 17.3,-73.8 44.6,-97.7 z"
     stroke-miterlimit="10" /><ellipse
     style="fill:#306d7c;stroke:none;stroke-miterlimit:10"
     id="ellipse5"
     ry="71.699997"
     rx="44.700001"
     cy="112"
     cx="151.89999"
     stroke-miterlimit="10" /><ellipse
     style="stroke:none"
     id="ellipse7"
     ry="43.4"
     rx="14.2"
     cy="109.9"
     cx="152.5"
     stroke-miterlimit="10"
     stroke="#000000"
     fill="#FFFFFF" /><path
     style="fill:#306d7c;stroke:none;stroke-miterlimit:10"
     id="path9"
     d="m 181.3,210.4 c -4.2,5.7 -15.9,9.9 -29.7,9.9 -13.8,0 -25.6,-4.1 -29.7,-9.9 0,0 15.51319,6.23834 30.22457,6.25169 C 166.83595,216.66505 181.3,210.4 181.3,210.4 Z"
     stroke-miterlimit="10" /><path
     style="fill:#89c4d6;stroke:none;stroke-miterlimit:10"
     id="path11"
     d="m 28.3,238.2 c 15.4,0 27.8,12.4 27.8,27.8 0,4.8 -1.2,9.2 -3.3,13.2 l 74.3,52.6 c 6.2,-6.3 14.8,-10.3 24.4,-10.3 9.3,0 17.7,3.7 23.8,9.7 L 311.1,183.7 c -6.4,-5.1 -10.4,-12.9 -10.4,-21.7 0,-15.4 12.4,-27.8 27.8,-27.8 15.4,0 27.8,12.4 27.8,27.8 0,15.4 -12.4,27.8 -27.8,27.8 -4.4,0 -8.6,-1.1 -12.3,-2.9 l -137,148.8 c 4,5.6 6.4,12.5 6.4,19.9 0,7.2 -2.2,13.9 -6,19.4 l -4.1,4.9 c -0.7,0.7 -1.5,1.4 -2.3,2 l 47,57.5 c 4.3,-2.7 9.5,-4.3 15,-4.3 15.5,0 28.1,12.6 28.1,28.1 0,15.5 -12.6,28.1 -28.1,28.1 -15.5,0 -28.1,-12.6 -28.1,-28.1 0,-7.9 3.3,-15 8.5,-20.1 l -47.2,-57.8 c -5,2.9 -10.8,4.5 -16.9,4.5 -6.7,0 -13,-2 -18.3,-5.3 l -28.7,38.2 c 6.9,5.1 11.3,13.3 11.3,22.5 0,15.5 -12.6,28.1 -28.1,28.1 -15.5,0 -28.1,-12.6 -28.1,-28.1 0,-15.5 12.6,-28.1 28.1,-28.1 4.2,0 8.2,0.9 11.8,2.6 L 128.6,381 c -1.4,-1.2 -2.6,-2.5 -3.8,-4 l -3.3,-4.9 c -2.7,-4.9 -4.3,-10.5 -4.3,-16.5 0,-7.2 2.2,-13.8 6,-19.3 L 49.4,284 c -5.1,6 -12.7,9.8 -21.1,9.8 -15.4,0 -27.8,-12.4 -27.8,-27.8 0,-15.4 12.4,-27.8 27.8,-27.8 z"
     stroke-miterlimit="10" /></svg>