<?xml version="1.0" encoding="utf-8"?>
<!-- Generator: Adobe Illustrator 21.0.0, SVG Export Plug-In . SVG Version: 6.00 Build 0)  -->
<svg version="1.1" id="Layer_1" xmlns="http://www.w3.org/2000/svg" xmlns:xlink="http://www.w3.org/1999/xlink" x="0px" y="0px"
	 viewBox="0 0 100 100" style="enable-background:new 0 0 100 100;" xml:space="preserve">
<style type="text/css">
	.st0{fill:none;stroke:#000000;stroke-width:15;}
</style>
<path class="st0" d="M22.1,84.1C14.3,76.6,10,66.3,10,55.5c0-22.1,17.9-40,40-40s40,17.9,40,40l0,0c0,10.7-4.3,20.9-11.9,28.4"/>
<g transform="translate(-314.85442,-435.92224)">
	<path d="M362.2,463.9c0,0-2.7,11.6-9.7,24.3s0.6,25.8,13.9,24.2c13.3-1.6,16-14.4,12.2-22.7C374.7,481.4,363.7,480.9,362.2,463.9z
		 M377.2,498.5c1.3,7.9-8.1,10.4-8.1,10.4C373.5,505.2,377.2,498.5,377.2,498.5z"/>
</g>
</svg>
