<?xml version="1.0" encoding="UTF-8" ?>
<!DOCTYPE svg PUBLIC "-//W3C//DTD SVG 1.1//EN" "http://www.w3.org/Graphics/SVG/1.1/DTD/svg11.dtd">
<svg width="265pt" height="266pt" viewBox="0 0 265 266" version="1.1" xmlns="http://www.w3.org/2000/svg">
<path fill="#f9f9f8" d=" M 0.00 0.00 L 265.00 0.00 L 265.00 266.00 L 0.00 266.00 L 0.00 0.00 Z" />
<path fill="#d2d2cf" d=" M 41.33 9.20 C 44.19 7.32 47.54 6.06 51.00 6.08 C 93.99 6.10 136.97 6.11 179.96 6.08 C 188.36 5.89 196.13 13.51 195.77 21.97 C 195.84 95.96 195.75 169.95 195.81 243.94 C 196.11 251.27 190.69 257.77 183.98 260.14 C 182.22 260.58 180.30 261.94 178.54 260.85 C 175.18 259.14 171.29 260.14 167.69 259.61 C 174.07 257.35 181.77 260.89 187.32 256.21 C 189.64 254.64 191.47 252.39 192.58 249.82 C 194.17 246.44 193.44 242.60 193.57 239.00 C 193.57 168.67 193.56 98.35 193.58 28.03 C 193.52 24.84 193.89 21.61 193.29 18.46 C 191.56 13.15 186.77 8.53 180.98 8.33 C 173.00 8.02 165.00 8.30 157.02 7.84 C 123.34 7.91 89.64 7.49 55.97 8.13 C 52.81 8.19 49.59 7.95 46.50 8.70 C 41.78 10.42 37.46 14.76 37.34 20.00 C 37.32 95.34 37.35 170.69 37.33 246.04 C 37.37 252.08 42.73 256.05 47.37 258.95 C 46.94 259.08 46.09 259.34 45.67 259.47 C 39.53 257.39 35.00 250.60 35.01 243.97 C 35.00 170.00 35.00 96.03 35.01 22.06 C 35.28 17.19 37.42 12.24 41.33 9.20 Z" />
<path fill="#f9f9f8" d=" M 46.50 8.70 C 49.59 7.95 52.81 8.19 55.97 8.13 C 89.64 7.49 123.34 7.91 157.02 7.84 C 165.00 8.30 173.00 8.02 180.98 8.33 C 186.77 8.53 191.56 13.15 193.29 18.46 C 193.89 21.61 193.52 24.84 193.58 28.03 C 193.56 98.35 193.57 168.67 193.57 239.00 C 193.44 242.60 194.17 246.44 192.58 249.82 C 191.47 252.39 189.64 254.64 187.32 256.21 C 181.77 260.89 174.07 257.35 167.69 259.61 C 130.78 259.82 93.86 259.80 56.95 259.59 C 53.74 259.61 50.54 259.40 47.37 258.95 C 42.73 256.05 37.37 252.08 37.33 246.04 C 37.35 170.69 37.32 95.34 37.34 20.00 C 37.46 14.76 41.78 10.42 46.50 8.70 Z" />
<path fill="#e2e2e0" d=" M 116.22 19.46 C 119.82 19.38 123.42 19.64 127.02 19.59 C 131.90 19.60 136.25 22.22 141.03 22.77 C 143.62 23.04 145.65 24.81 147.92 25.91 C 153.30 28.27 158.11 31.73 162.87 35.13 C 169.62 41.93 176.66 48.88 180.51 57.84 C 187.54 70.55 188.96 85.83 186.07 99.93 C 183.76 105.54 182.22 111.51 178.60 116.49 C 176.57 121.20 173.08 124.95 169.87 128.88 C 159.82 139.77 146.71 148.59 131.91 151.08 C 126.44 152.95 120.59 152.22 115.00 153.44 C 105.27 151.39 94.73 151.53 85.95 146.22 C 78.24 143.12 72.14 137.40 65.63 132.43 C 58.56 123.99 51.38 114.84 49.13 103.78 C 48.46 100.80 46.29 98.21 46.58 95.03 C 46.58 88.02 46.38 81.00 46.72 74.00 C 48.68 66.76 51.43 59.69 54.98 53.10 C 59.12 45.23 65.63 39.03 72.27 33.28 C 76.07 30.63 80.13 28.37 84.18 26.12 C 89.34 23.25 95.15 21.99 100.81 20.50 C 105.80 18.91 111.08 19.85 116.22 19.46 Z" />
<path fill="#f9f9f8" d=" M 106.44 24.61 C 122.12 22.48 138.59 26.24 151.34 35.74 C 155.83 39.18 159.73 43.33 163.52 47.51 C 169.74 55.45 173.88 64.97 175.53 74.91 C 180.12 98.15 169.39 123.66 149.60 136.69 C 144.11 140.78 137.61 143.19 131.10 145.15 C 123.60 147.37 115.68 146.90 107.96 146.66 C 93.39 145.17 79.90 137.61 69.96 127.02 C 61.85 117.60 56.25 105.87 54.64 93.51 C 53.29 81.08 55.19 68.14 61.22 57.09 C 65.23 50.14 69.67 43.08 76.25 38.28 C 84.74 31.00 95.45 26.44 106.44 24.61 Z" />
<path fill="#d2d2cf" d=" M 105.27 31.84 C 105.41 30.01 108.80 30.02 109.83 31.24 C 108.40 31.89 106.83 32.16 105.27 31.84 Z" />
<path fill="#bfbfbc" d=" M 109.83 31.24 C 113.51 30.49 117.45 30.99 121.18 31.40 C 122.63 31.91 124.17 32.11 125.71 31.91 L 127.07 31.87 C 127.54 32.10 128.47 32.55 128.94 32.78 C 134.47 33.50 139.57 36.62 144.45 39.27 C 144.52 39.31 144.66 39.40 144.73 39.44 L 146.49 40.55 C 146.62 40.64 146.90 40.82 147.04 40.90 C 147.17 40.99 147.44 41.17 147.58 41.26 C 148.32 41.84 149.80 43.00 150.54 43.58 C 150.67 43.72 150.95 44.01 151.09 44.15 C 151.32 44.37 151.78 44.82 152.00 45.05 C 152.25 45.29 152.75 45.77 153.00 46.01 C 153.25 46.26 153.74 46.75 153.99 47.00 C 154.24 47.25 154.73 47.74 154.98 47.99 C 155.21 48.21 155.66 48.67 155.89 48.89 C 156.04 49.03 156.32 49.30 156.46 49.44 C 157.69 50.56 158.70 51.90 159.63 53.28 C 159.67 53.35 159.76 53.47 159.80 53.54 C 160.25 54.23 161.16 55.62 161.61 56.32 C 161.66 56.39 161.74 56.52 161.78 56.59 L 162.76 58.19 C 162.80 58.26 162.89 58.39 162.93 58.46 C 162.09 64.48 162.43 70.55 162.30 76.60 C 164.58 76.66 166.86 76.72 169.14 76.80 C 169.47 82.58 169.53 88.38 169.10 94.16 C 166.84 94.24 164.59 94.31 162.34 94.37 C 162.22 100.72 162.51 107.09 162.04 113.44 L 160.91 112.78 C 160.01 108.07 161.17 103.22 160.24 98.51 C 160.01 96.67 159.30 94.79 159.76 92.93 C 161.20 91.22 163.33 90.33 165.00 88.88 C 165.77 87.43 166.02 85.76 166.50 84.20 C 164.81 81.89 162.30 80.52 160.05 78.87 C 158.71 72.58 160.57 66.00 159.12 59.74 C 157.70 57.27 155.64 55.27 153.90 53.04 C 150.80 48.96 146.00 46.75 141.52 44.56 C 137.01 42.89 132.17 41.36 127.30 42.01 C 125.56 42.15 123.82 42.56 122.07 42.32 C 120.68 41.46 120.20 39.73 119.37 38.41 C 119.37 36.38 119.44 34.34 119.49 32.31 C 116.79 31.97 114.07 31.95 111.38 32.29 C 111.56 37.08 111.61 41.87 111.69 46.66 L 111.13 46.67 C 110.88 43.44 110.66 40.22 110.54 36.98 C 110.40 39.24 110.23 41.49 110.03 43.74 C 106.21 43.18 102.32 44.15 99.04 46.12 C 93.94 49.53 89.00 53.26 84.77 57.72 C 80.73 62.94 77.06 68.74 75.58 75.24 C 75.75 81.16 74.19 86.92 73.72 92.78 C 74.50 100.25 76.55 107.84 80.95 114.02 C 84.08 116.28 85.64 119.94 88.40 122.56 C 92.63 126.64 96.63 131.14 101.78 134.10 C 104.41 134.92 107.32 134.78 109.79 136.13 C 110.81 136.69 111.06 137.51 110.53 138.58 C 109.47 139.28 108.32 138.22 107.26 138.02 C 102.87 136.35 98.30 135.27 93.86 133.75 C 93.78 133.71 93.62 133.63 93.54 133.59 C 93.62 133.63 93.78 133.71 93.86 133.75 L 93.64 133.86 C 93.25 134.17 92.48 134.80 92.09 135.11 C 91.57 134.85 90.52 134.33 90.00 134.07 C 89.45 133.78 88.35 133.20 87.80 132.92 C 87.67 132.85 87.41 132.73 87.29 132.66 L 85.43 131.56 C 85.28 131.46 84.99 131.28 84.84 131.19 C 84.70 131.09 84.42 130.89 84.27 130.79 L 82.46 129.45 C 82.30 129.33 81.98 129.07 81.82 128.95 C 81.58 128.74 81.11 128.33 80.87 128.13 C 80.63 127.93 80.14 127.53 79.90 127.33 C 79.74 127.22 79.43 126.98 79.28 126.86 C 76.59 124.89 74.30 122.44 72.38 119.73 C 72.34 119.67 72.25 119.55 72.21 119.49 C 71.74 118.83 70.80 117.49 70.33 116.82 C 70.29 116.76 70.21 116.64 70.16 116.58 C 69.71 115.85 68.81 114.41 68.36 113.68 C 68.32 113.62 68.25 113.49 68.21 113.42 L 67.37 111.85 C 67.34 111.77 67.26 111.63 67.22 111.55 L 66.37 109.87 C 66.33 109.79 66.26 109.63 66.22 109.56 L 65.36 107.76 C 65.32 107.68 65.25 107.53 65.22 107.46 L 64.47 105.79 C 64.44 105.72 64.39 105.57 64.36 105.50 C 64.10 104.80 63.59 103.40 63.34 102.70 C 63.32 102.63 63.27 102.48 63.25 102.41 C 63.14 101.79 62.94 100.54 62.84 99.92 C 62.60 99.46 62.14 98.53 61.90 98.07 C 61.89 97.49 61.85 96.33 61.84 95.75 C 62.17 94.51 61.97 93.20 61.28 92.12 C 59.96 88.27 60.57 83.93 60.86 79.91 C 61.06 79.45 61.47 78.51 61.67 78.04 C 61.55 72.33 63.51 66.52 66.27 61.52 C 66.31 61.45 66.38 61.31 66.41 61.25 C 67.85 58.73 68.96 55.95 70.99 53.83 C 71.32 53.36 71.99 52.44 72.32 51.97 C 72.39 51.87 72.52 51.68 72.58 51.58 C 73.45 50.43 74.40 49.35 75.43 48.35 C 75.57 48.21 75.85 47.93 75.99 47.79 C 76.22 47.56 76.67 47.11 76.89 46.88 C 77.14 46.64 77.63 46.15 77.87 45.91 C 78.09 45.69 78.54 45.24 78.76 45.01 C 78.90 44.88 79.19 44.61 79.33 44.47 C 80.94 43.03 82.68 41.76 84.49 40.58 C 84.61 40.51 84.84 40.36 84.96 40.29 C 85.44 39.96 86.40 39.30 86.88 38.97 C 87.48 38.57 88.67 37.78 89.27 37.38 C 89.34 37.35 89.49 37.27 89.56 37.24 L 91.30 36.40 C 91.37 36.36 91.52 36.29 91.59 36.26 L 93.27 35.47 C 93.34 35.44 93.49 35.39 93.56 35.36 L 95.07 34.90 C 95.54 34.67 96.50 34.22 96.98 33.99 L 98.13 33.91 C 98.58 33.64 99.48 33.11 99.93 32.84 L 101.06 32.93 C 101.54 32.73 102.50 32.33 102.99 32.13 C 103.56 32.06 104.70 31.91 105.27 31.84 C 106.83 32.16 108.40 31.89 109.83 31.24 Z" />
<path fill="#d2d2cf" d=" M 121.18 31.40 C 122.12 30.08 125.73 29.95 125.71 31.91 C 124.17 32.11 122.63 31.91 121.18 31.40 Z" />
<path fill="#d2d2cf" d=" M 101.21 32.05 L 102.19 31.64 L 102.99 32.13 C 102.50 32.33 101.54 32.73 101.06 32.93 L 101.21 32.05 Z" />
<path fill="#2b2c2a" d=" M 111.38 32.29 C 114.07 31.95 116.79 31.97 119.49 32.31 C 119.44 34.34 119.37 36.38 119.37 38.41 C 119.37 41.16 119.30 43.90 119.18 46.65 C 116.68 46.61 114.18 46.60 111.69 46.66 C 111.61 41.87 111.56 37.08 111.38 32.29 Z" />
<path fill="#d2d2cf" d=" M 127.07 31.87 L 127.89 31.44 L 128.84 31.91 L 128.94 32.78 C 128.47 32.55 127.54 32.10 127.07 31.87 Z" />
<path fill="#d2d2cf" d=" M 98.17 33.02 L 99.08 32.47 L 99.93 32.84 C 99.48 33.11 98.58 33.64 98.13 33.91 L 98.17 33.02 Z" />
<path fill="#aaabaa" d=" M 113.25 33.98 C 113.44 32.62 116.85 32.63 117.06 33.87 C 115.78 34.58 114.51 34.62 113.25 33.98 Z" />
<path fill="#d2d2cf" d=" M 95.20 34.00 L 96.17 33.54 L 96.98 33.99 C 96.50 34.22 95.54 34.67 95.07 34.90 L 95.20 34.00 Z" />
<path fill="#d2d2cf" d=" M 93.27 35.47 C 93.34 35.44 93.49 35.39 93.56 35.36 C 93.49 35.39 93.34 35.44 93.27 35.47 Z" />
<path fill="#e2e2e0" d=" M 113.22 36.03 C 114.16 34.79 116.81 34.81 117.80 35.97 C 116.72 37.36 114.35 37.37 113.22 36.03 Z" />
<path fill="#d2d2cf" d=" M 91.30 36.40 C 91.37 36.36 91.52 36.29 91.59 36.26 C 91.52 36.29 91.37 36.36 91.30 36.40 Z" />
<path fill="#aaabaa" d=" M 112.96 39.29 C 113.04 38.20 113.13 37.11 113.22 36.03 C 114.35 37.37 116.72 37.36 117.80 35.97 C 117.87 37.04 117.93 38.11 117.98 39.18 C 116.31 39.35 114.63 39.38 112.96 39.29 Z" />
<path fill="#d2d2cf" d=" M 89.27 37.38 C 89.34 37.35 89.49 37.27 89.56 37.24 C 89.49 37.27 89.34 37.35 89.27 37.38 Z" />
<path fill="#d2d2cf" d=" M 110.03 43.74 C 110.23 41.49 110.40 39.24 110.54 36.98 C 110.66 40.22 110.88 43.44 111.13 46.67 L 111.69 46.66 C 114.18 46.60 116.68 46.61 119.18 46.65 C 119.30 43.90 119.37 41.16 119.37 38.41 C 120.20 39.73 120.68 41.46 122.07 42.32 C 123.82 42.56 125.56 42.15 127.30 42.01 C 132.17 41.36 137.01 42.89 141.52 44.56 C 146.00 46.75 150.80 48.96 153.90 53.04 C 155.64 55.27 157.70 57.27 159.12 59.74 C 160.57 66.00 158.71 72.58 160.05 78.87 C 162.30 80.52 164.81 81.89 166.50 84.20 C 166.02 85.76 165.77 87.43 165.00 88.88 C 163.33 90.33 161.20 91.22 159.76 92.93 C 159.30 94.79 160.01 96.67 160.24 98.51 C 161.17 103.22 160.01 108.07 160.91 112.78 L 162.04 113.44 C 162.51 107.09 162.22 100.72 162.34 94.37 C 164.59 94.31 166.84 94.24 169.10 94.16 C 169.53 88.38 169.47 82.58 169.14 76.80 C 166.86 76.72 164.58 76.66 162.30 76.60 C 162.43 70.55 162.09 64.48 162.93 58.46 C 170.34 68.90 171.57 82.59 169.84 94.96 C 168.10 105.96 162.43 115.80 155.26 124.16 C 154.89 124.06 154.15 123.86 153.78 123.76 C 153.39 123.37 153.39 123.37 153.78 123.76 C 152.97 126.50 150.41 129.09 147.71 129.97 L 146.79 129.77 C 146.70 129.68 146.51 129.52 146.42 129.43 C 146.51 129.52 146.70 129.68 146.79 129.77 C 147.53 131.21 145.34 131.89 144.50 132.58 C 137.88 136.72 130.36 139.38 122.65 140.53 C 114.45 140.90 105.88 141.29 98.17 138.05 C 97.85 137.77 97.22 137.22 96.91 136.94 C 97.35 136.89 98.23 136.79 98.67 136.74 L 98.75 135.98 L 98.04 135.69 C 97.75 136.00 97.19 136.63 96.91 136.94 L 95.91 137.47 C 95.51 137.25 94.71 136.79 94.31 136.56 L 93.77 134.70 C 94.22 134.95 95.12 135.45 95.57 135.69 C 95.09 135.24 94.12 134.32 93.64 133.86 L 93.86 133.75 C 98.30 135.27 102.87 136.35 107.26 138.02 C 108.32 138.22 109.47 139.28 110.53 138.58 C 111.06 137.51 110.81 136.69 109.79 136.13 C 107.32 134.78 104.41 134.92 101.78 134.10 C 96.63 131.14 92.63 126.64 88.40 122.56 C 85.64 119.94 84.08 116.28 80.95 114.02 C 76.55 107.84 74.50 100.25 73.72 92.78 C 74.19 86.92 75.75 81.16 75.58 75.24 C 77.06 68.74 80.73 62.94 84.77 57.72 C 89.00 53.26 93.94 49.53 99.04 46.12 C 102.32 44.15 106.21 43.18 110.03 43.74 Z" />
<path fill="#d2d2cf" d=" M 84.96 40.29 C 85.22 39.90 85.75 39.10 86.02 38.70 L 86.88 38.97 C 86.40 39.30 85.44 39.96 84.96 40.29 Z" />
<path fill="#d2d2cf" d=" M 144.45 39.27 C 144.52 39.31 144.66 39.40 144.73 39.44 C 144.66 39.40 144.52 39.31 144.45 39.27 Z" />
<path fill="#d2d2cf" d=" M 84.49 40.58 C 84.61 40.51 84.84 40.36 84.96 40.29 C 84.84 40.36 84.61 40.51 84.49 40.58 Z" />
<path fill="#d2d2cf" d=" M 146.49 40.55 C 146.62 40.64 146.90 40.82 147.04 40.90 C 146.90 40.82 146.62 40.64 146.49 40.55 Z" />
<path fill="#d2d2cf" d=" M 147.04 40.90 C 147.17 40.99 147.44 41.17 147.58 41.26 C 147.44 41.17 147.17 40.99 147.04 40.90 Z" />
<path fill="#d2d2cf" d=" M 150.54 43.58 C 150.67 43.72 150.95 44.01 151.09 44.15 C 150.95 44.01 150.67 43.72 150.54 43.58 Z" />
<path fill="#d2d2cf" d=" M 78.76 45.01 C 78.90 44.88 79.19 44.61 79.33 44.47 C 79.19 44.61 78.90 44.88 78.76 45.01 Z" />
<path fill="#d2d2cf" d=" M 151.09 44.15 C 151.32 44.37 151.78 44.82 152.00 45.05 C 151.78 44.82 151.32 44.37 151.09 44.15 Z" />
<path fill="#d2d2cf" d=" M 77.87 45.91 C 78.09 45.69 78.54 45.24 78.76 45.01 C 78.54 45.24 78.09 45.69 77.87 45.91 Z" />
<path fill="#d2d2cf" d=" M 152.00 45.05 C 152.25 45.29 152.75 45.77 153.00 46.01 C 152.75 45.77 152.25 45.29 152.00 45.05 Z" />
<path fill="#d2d2cf" d=" M 76.89 46.88 C 77.14 46.64 77.63 46.15 77.87 45.91 C 77.63 46.15 77.14 46.64 76.89 46.88 Z" />
<path fill="#d2d2cf" d=" M 153.00 46.01 C 153.25 46.26 153.74 46.75 153.99 47.00 C 153.74 46.75 153.25 46.26 153.00 46.01 Z" />
<path fill="#d2d2cf" d=" M 75.99 47.79 C 76.22 47.56 76.67 47.11 76.89 46.88 C 76.67 47.11 76.22 47.56 75.99 47.79 Z" />
<path fill="#d2d2cf" d=" M 153.99 47.00 C 154.24 47.25 154.73 47.74 154.98 47.99 C 154.73 47.74 154.24 47.25 153.99 47.00 Z" />
<path fill="#d2d2cf" d=" M 75.43 48.35 C 75.57 48.21 75.85 47.93 75.99 47.79 C 75.85 47.93 75.57 48.21 75.43 48.35 Z" />
<path fill="#d2d2cf" d=" M 154.98 47.99 C 155.21 48.21 155.66 48.67 155.89 48.89 C 155.66 48.67 155.21 48.21 154.98 47.99 Z" />
<path fill="#d2d2cf" d=" M 155.89 48.89 C 156.04 49.03 156.32 49.30 156.46 49.44 C 156.32 49.30 156.04 49.03 155.89 48.89 Z" />
<path fill="#d2d2cf" d=" M 72.32 51.97 C 72.39 51.87 72.52 51.68 72.58 51.58 C 72.52 51.68 72.39 51.87 72.32 51.97 Z" />
<path fill="#d2d2cf" d=" M 70.72 52.97 C 71.12 52.72 71.92 52.22 72.32 51.97 C 71.99 52.44 71.32 53.36 70.99 53.83 L 70.72 52.97 Z" />
<path fill="#d2d2cf" d=" M 159.63 53.28 C 159.67 53.35 159.76 53.47 159.80 53.54 C 159.76 53.47 159.67 53.35 159.63 53.28 Z" />
<path fill="#d2d2cf" d=" M 161.61 56.32 C 161.66 56.39 161.74 56.52 161.78 56.59 C 161.74 56.52 161.66 56.39 161.61 56.32 Z" />
<path fill="#d2d2cf" d=" M 162.76 58.19 C 162.80 58.26 162.89 58.39 162.93 58.46 C 162.89 58.39 162.80 58.26 162.76 58.19 Z" />
<path fill="#d2d2cf" d=" M 66.27 61.52 C 66.31 61.45 66.38 61.31 66.41 61.25 C 66.38 61.31 66.31 61.45 66.27 61.52 Z" />
<path fill="#d2d2cf" d=" M 60.82 78.15 L 61.67 78.04 C 61.47 78.51 61.06 79.45 60.86 79.91 C 60.85 79.47 60.83 78.59 60.82 78.15 Z" />
<path fill="#545552" d=" M 84.11 80.57 C 86.96 77.36 92.15 76.89 95.27 80.01 C 91.73 81.55 87.82 80.58 84.11 80.57 Z" />
<path fill="#2b2c2a" d=" M 134.22 84.21 C 133.55 79.32 140.37 76.43 144.18 78.77 C 147.05 79.96 147.84 83.01 148.23 85.79 C 148.17 90.56 143.16 94.31 138.57 92.66 C 138.50 92.64 138.36 92.59 138.29 92.57 C 135.99 91.69 133.53 89.46 134.22 86.73 C 134.22 86.10 134.22 84.84 134.22 84.21 Z" />
<path fill="#2b2c2a" d=" M 84.11 80.57 C 87.82 80.58 91.73 81.55 95.27 80.01 C 96.23 81.21 97.06 82.58 96.74 84.22 C 96.74 84.85 96.74 86.12 96.74 86.76 C 97.33 92.00 90.01 94.71 86.13 91.93 C 82.33 89.56 81.69 84.17 84.11 80.57 Z" />
<path fill="#545552" d=" M 96.74 84.22 C 98.50 83.61 98.50 87.41 96.74 86.76 C 96.74 86.12 96.74 84.85 96.74 84.22 Z" />
<path fill="#545552" d=" M 134.22 86.73 C 132.45 87.39 132.46 83.61 134.22 84.21 C 134.22 84.84 134.22 86.10 134.22 86.73 Z" />
<path fill="#d2d2cf" d=" M 61.28 92.12 C 61.97 93.20 62.17 94.51 61.84 95.75 C 60.08 95.98 60.09 92.87 61.28 92.12 Z" />
<path fill="#545552" d=" M 138.29 92.57 C 138.36 92.59 138.50 92.64 138.57 92.66 C 138.50 92.64 138.36 92.59 138.29 92.57 Z" />
<path fill="#d2d2cf" d=" M 61.90 98.07 C 62.14 98.53 62.60 99.46 62.84 99.92 L 61.96 99.83 L 61.48 98.89 L 61.90 98.07 Z" />
<path fill="#d2d2cf" d=" M 63.25 102.41 C 63.27 102.48 63.32 102.63 63.34 102.70 C 63.32 102.63 63.27 102.48 63.25 102.41 Z" />
<path fill="#d2d2cf" d=" M 64.36 105.50 C 64.39 105.57 64.44 105.72 64.47 105.79 C 64.44 105.72 64.39 105.57 64.36 105.50 Z" />
<path fill="#d2d2cf" d=" M 65.22 107.46 C 65.25 107.53 65.32 107.68 65.36 107.76 C 65.32 107.68 65.25 107.53 65.22 107.46 Z" />
<path fill="#d2d2cf" d=" M 66.22 109.56 C 66.26 109.63 66.33 109.79 66.37 109.87 C 66.33 109.79 66.26 109.63 66.22 109.56 Z" />
<path fill="#d2d2cf" d=" M 67.22 111.55 C 67.26 111.63 67.34 111.77 67.37 111.85 C 67.34 111.77 67.26 111.63 67.22 111.55 Z" />
<path fill="#d2d2cf" d=" M 68.21 113.42 C 68.25 113.49 68.32 113.62 68.36 113.68 C 68.32 113.62 68.25 113.49 68.21 113.42 Z" />
<path fill="#d2d2cf" d=" M 70.16 116.58 C 70.21 116.64 70.29 116.76 70.33 116.82 C 70.29 116.76 70.21 116.64 70.16 116.58 Z" />
<path fill="#d2d2cf" d=" M 72.21 119.49 C 72.25 119.55 72.34 119.67 72.38 119.73 C 72.34 119.67 72.25 119.55 72.21 119.49 Z" />
<path fill="#aaabaa" d=" M 153.78 123.76 C 153.39 123.37 153.39 123.37 153.78 123.76 Z" />
<path fill="#2b2c2a" d=" M 111.53 124.48 C 114.04 124.30 116.56 124.30 119.08 124.26 C 119.36 127.12 119.32 130.00 119.34 132.88 C 119.34 134.95 119.26 137.02 119.16 139.09 C 116.65 139.12 114.14 139.14 111.63 139.35 C 111.19 134.40 111.84 129.44 111.53 124.48 Z" />
<path fill="#d2d2cf" d=" M 79.28 126.86 C 79.43 126.98 79.74 127.22 79.90 127.33 C 79.74 127.22 79.43 126.98 79.28 126.86 Z" />
<path fill="#d2d2cf" d=" M 79.90 127.33 C 80.14 127.53 80.63 127.93 80.87 128.13 C 80.63 127.93 80.14 127.53 79.90 127.33 Z" />
<path fill="#d2d2cf" d=" M 80.87 128.13 C 81.11 128.33 81.58 128.74 81.82 128.95 C 81.58 128.74 81.11 128.33 80.87 128.13 Z" />
<path fill="#d2d2cf" d=" M 81.82 128.95 C 81.98 129.07 82.30 129.33 82.46 129.45 C 82.30 129.33 81.98 129.07 81.82 128.95 Z" />
<path fill="#aaabaa" d=" M 146.42 129.43 C 146.51 129.52 146.70 129.68 146.79 129.77 C 146.70 129.68 146.51 129.52 146.42 129.43 Z" />
<path fill="#d2d2cf" d=" M 84.27 130.79 C 84.42 130.89 84.70 131.09 84.84 131.19 C 84.70 131.09 84.42 130.89 84.27 130.79 Z" />
<path fill="#d2d2cf" d=" M 84.84 131.19 C 84.99 131.28 85.28 131.46 85.43 131.56 C 85.28 131.46 84.99 131.28 84.84 131.19 Z" />
<path fill="#d2d2cf" d=" M 87.29 132.66 C 87.41 132.73 87.67 132.85 87.80 132.92 C 87.67 132.85 87.41 132.73 87.29 132.66 Z" />
<path fill="#aaabaa" d=" M 112.87 131.82 C 114.63 131.74 116.40 131.78 118.16 131.98 C 118.11 133.56 118.03 135.14 117.90 136.73 L 117.05 135.81 C 117.55 133.41 113.61 133.28 113.87 135.67 L 113.07 136.22 C 112.96 134.75 112.89 133.29 112.87 131.82 Z" />
<path fill="#d2d2cf" d=" M 87.80 132.92 C 88.35 133.20 89.45 133.78 90.00 134.07 C 89.50 134.00 88.51 133.86 88.01 133.80 L 87.80 132.92 Z" />
<path fill="#d2d2cf" d=" M 93.54 133.59 C 93.62 133.63 93.78 133.71 93.86 133.75 C 93.78 133.71 93.62 133.63 93.54 133.59 Z" />
<path fill="#aaabaa" d=" M 119.34 132.88 C 119.70 133.88 120.06 134.88 120.43 135.88 C 120.79 135.42 121.17 134.96 121.54 134.50 C 122.76 135.55 124.31 135.98 125.81 136.48 C 121.40 139.33 116.08 140.49 110.89 139.42 C 111.07 139.40 111.45 139.37 111.63 139.35 C 114.14 139.14 116.65 139.12 119.16 139.09 C 119.26 137.02 119.34 134.95 119.34 132.88 Z" />
<path fill="#d2d2cf" d=" M 90.00 134.07 C 90.52 134.33 91.57 134.85 92.09 135.11 C 91.61 135.06 90.64 134.96 90.16 134.92 L 90.00 134.07 Z" />
<path fill="#d2d2cf" d=" M 113.87 135.67 C 113.61 133.28 117.55 133.41 117.05 135.81 L 116.11 136.34 C 115.55 136.17 114.43 135.83 113.87 135.67 Z" />
<path fill="#d2d2cf" d=" M 92.09 135.11 C 92.48 134.80 93.25 134.17 93.64 133.86 L 93.77 134.70 C 93.44 134.96 92.76 135.48 92.43 135.74 L 92.09 135.11 Z" />
<path fill="#aaabaa" d=" M 93.64 133.86 C 94.12 134.32 95.09 135.24 95.57 135.69 C 95.12 135.45 94.22 134.95 93.77 134.70 L 93.64 133.86 Z" />
<path fill="#aaabaa" d=" M 96.91 136.94 C 97.19 136.63 97.75 136.00 98.04 135.69 L 98.75 135.98 L 98.67 136.74 C 98.23 136.79 97.35 136.89 96.91 136.94 Z" />
<path fill="#bfbfbc" d=" M 113.17 137.13 C 114.51 136.67 115.85 136.73 117.20 137.29 C 116.98 138.54 113.42 138.56 113.17 137.13 Z" />
<path fill="#aaabaa" d=" M 105.34 138.23 C 105.75 138.81 105.75 138.81 105.34 138.23 Z" />
<path fill="#a10015" d=" M 168.05 149.28 C 172.00 149.35 175.96 149.34 179.92 149.27 C 180.35 160.21 179.99 171.19 180.13 182.15 C 179.89 182.40 179.40 182.90 179.15 183.15 C 175.70 183.22 172.24 183.20 168.79 183.18 C 168.56 182.93 168.10 182.44 167.87 182.19 C 167.95 171.22 167.62 160.24 168.05 149.28 Z" />
<path fill="#545552" d=" M 168.32 187.30 C 171.69 185.89 175.58 186.91 179.16 186.64 C 182.51 187.46 181.24 191.44 181.49 193.94 C 181.34 196.49 182.37 200.35 178.99 201.17 C 175.25 201.02 171.07 202.21 167.65 200.31 C 166.70 196.48 167.38 192.26 167.36 188.29 C 167.60 188.04 168.08 187.55 168.32 187.30 Z" />
<path fill="#aaabaa" d=" M 124.00 193.92 C 123.16 189.63 129.86 187.47 132.54 190.53 C 136.22 193.46 133.68 200.12 129.00 199.94 C 126.46 200.23 122.96 197.46 123.98 194.98 C 125.75 195.31 126.46 200.08 128.57 197.19 C 129.42 197.49 130.26 197.79 131.11 198.10 C 132.06 196.87 132.84 195.52 133.52 194.12 C 132.68 193.06 131.85 192.00 131.02 190.95 C 129.63 191.78 128.17 191.89 126.84 190.86 C 125.89 191.84 125.39 193.49 124.00 193.92 Z" />
<path fill="#bfbfbc" d=" M 138.23 191.23 C 142.56 189.25 144.36 197.42 139.99 198.07 C 136.10 198.87 134.74 192.64 138.23 191.23 Z" />
<path fill="#aaabaa" d=" M 149.49 191.51 C 151.21 191.70 152.91 191.10 154.60 191.33 C 157.49 192.42 157.07 197.52 153.90 197.87 C 151.94 198.28 151.01 196.20 149.85 195.07 C 149.53 195.71 148.89 197.00 148.57 197.64 C 148.00 197.64 146.85 197.63 146.28 197.63 C 146.01 196.38 145.73 195.14 145.45 193.90 C 143.91 194.74 143.98 196.57 143.57 198.07 C 142.76 196.85 142.69 195.34 142.69 193.92 C 143.47 192.53 145.37 193.38 146.65 193.14 C 146.84 193.90 147.21 195.42 147.40 196.17 C 148.48 194.81 148.98 193.14 149.49 191.51 Z" />
<path fill="#bfbfbc" d=" M 156.67 192.95 C 157.38 191.88 158.25 190.96 159.28 190.19 C 159.47 191.18 159.56 192.18 159.56 193.19 C 160.58 192.09 161.38 190.65 163.04 190.52 C 162.38 193.04 163.26 196.35 161.05 198.17 C 160.54 196.69 161.43 194.06 159.24 193.84 C 159.17 194.73 159.01 196.51 158.93 197.40 L 157.63 197.47 C 157.44 195.94 157.17 194.41 156.67 192.95 Z" />
<path fill="#f9ff7d" d=" M 171.33 191.47 C 173.30 190.81 175.35 190.84 177.38 191.17 C 177.43 193.21 177.44 195.25 177.39 197.29 C 175.43 197.31 173.48 197.31 171.52 197.32 C 171.48 195.36 171.42 193.41 171.33 191.47 Z" />
<path fill="#f9f9f8" d=" M 153.21 192.12 C 153.65 192.38 154.51 192.91 154.95 193.18 C 154.78 194.46 155.30 196.22 153.66 196.71 C 151.30 196.26 151.49 193.28 153.21 192.12 Z" />
<path fill="#91928f" d=" M 50.25 193.39 C 53.35 193.46 56.45 193.43 59.55 193.37 C 59.57 194.54 59.59 195.71 59.62 196.88 C 57.88 197.12 56.14 197.33 54.40 197.57 C 54.48 198.49 54.62 200.35 54.70 201.28 C 56.17 201.25 57.65 201.21 59.12 201.18 C 59.24 202.38 59.26 203.59 59.18 204.80 C 57.69 204.76 56.19 204.72 54.70 204.69 C 54.64 206.84 54.64 208.98 54.72 211.13 C 53.20 211.35 51.67 211.34 50.14 211.26 C 50.29 205.30 50.12 199.34 50.25 193.39 Z" />
<path fill="#f9f9f8" d=" M 138.04 192.99 C 138.73 193.00 140.12 193.02 140.82 193.03 C 140.82 193.76 140.83 195.22 140.84 195.95 C 138.62 197.72 137.50 194.96 138.04 192.99 Z" />
<path fill="#aaabaa" d=" M 77.54 194.20 C 78.26 194.13 79.71 193.98 80.44 193.91 C 80.42 199.38 80.72 204.84 80.52 210.31 C 78.91 210.31 77.31 210.31 75.70 210.30 C 75.63 206.19 75.45 202.07 75.67 197.97 C 76.47 196.80 77.36 195.66 77.54 194.20 Z" />
<path fill="#aaabaa" d=" M 95.34 193.35 C 99.42 193.18 103.50 193.40 107.58 193.54 C 106.44 197.98 103.17 201.53 101.68 205.86 C 103.72 205.88 105.75 205.99 107.78 206.20 C 107.71 207.59 107.58 208.99 107.35 210.37 C 103.06 210.26 98.77 210.38 94.48 210.23 C 96.35 205.84 98.89 201.80 100.84 197.46 C 99.04 197.48 97.23 197.50 95.42 197.52 C 95.40 196.48 95.36 194.39 95.34 193.35 Z" />
<path fill="#aaabaa" d=" M 126.17 194.10 C 129.22 192.60 126.34 197.39 126.17 194.10 Z" />
<path fill="#aaabaa" d=" M 130.15 194.10 C 133.17 192.53 130.36 197.39 130.15 194.10 Z" />
<path fill="#91928f" d=" M 110.36 196.27 C 111.53 196.25 112.71 196.23 113.89 196.22 C 113.71 198.92 113.47 201.63 113.08 204.32 C 112.33 204.28 110.82 204.21 110.07 204.17 C 110.22 201.53 110.31 198.90 110.36 196.27 Z" />
<path fill="#aaabaa" d=" M 61.35 197.32 C 64.97 197.37 69.02 196.71 72.22 198.82 C 74.73 200.80 73.46 204.21 71.43 205.99 C 71.82 207.94 74.29 209.03 74.90 211.01 C 74.56 212.72 72.57 213.53 71.19 214.34 C 69.67 211.62 67.87 209.05 66.62 206.19 C 68.55 204.76 70.13 200.28 66.16 200.84 C 66.33 205.30 66.28 209.77 66.18 214.24 C 64.54 214.26 62.91 214.20 61.30 213.93 C 61.42 208.39 61.32 202.85 61.35 197.32 Z" />
<path fill="#aaabaa" d=" M 80.68 197.44 C 85.50 197.12 90.34 197.22 95.16 197.44 C 95.13 198.46 95.07 200.49 95.03 201.51 C 93.51 201.51 91.99 201.52 90.47 201.51 C 90.53 205.76 90.59 210.01 90.46 214.25 C 88.83 214.25 87.21 214.25 85.59 214.23 C 85.40 209.98 85.49 205.72 85.54 201.47 C 83.92 201.46 82.31 201.45 80.71 201.43 C 80.70 200.43 80.69 198.44 80.68 197.44 Z" />
<path fill="#aaabaa" d=" M 109.37 206.21 C 110.78 204.59 112.51 205.66 113.54 207.08 C 112.77 207.99 111.94 208.83 111.04 209.60 C 110.20 208.62 108.65 207.73 109.37 206.21 Z" />
<path fill="#545552" d=" M 167.71 214.66 C 171.89 214.33 176.17 214.15 180.33 214.55 C 182.75 217.77 180.83 222.40 181.54 226.20 C 180.78 227.04 180.41 228.62 179.02 228.58 C 175.77 228.71 172.50 228.81 169.25 228.62 C 167.85 228.49 167.36 227.02 166.62 226.08 C 167.63 222.38 166.32 218.41 167.71 214.66 Z" />
<path fill="#bfbfbc" d=" M 142.28 218.26 C 145.25 216.60 149.09 220.04 147.38 223.03 C 146.76 224.98 144.45 224.82 142.84 225.05 C 141.91 222.90 142.21 220.54 142.28 218.26 Z" />
<path fill="#bfbfbc" d=" M 148.67 217.95 C 149.61 217.97 151.49 218.02 152.43 218.04 C 151.91 219.03 151.08 219.78 150.28 220.52 C 150.76 220.81 151.72 221.40 152.20 221.69 C 151.65 221.81 150.54 222.06 149.99 222.18 C 150.93 222.92 151.91 223.67 152.33 224.85 C 151.45 224.86 149.67 224.87 148.79 224.88 C 148.47 222.58 148.47 220.26 148.67 217.95 Z" />
<path fill="#aaabaa" d=" M 154.32 224.38 C 152.26 222.97 152.47 219.09 154.96 218.25 C 157.49 218.14 160.02 218.20 162.55 217.98 C 160.96 219.79 161.08 222.21 161.04 224.46 L 159.69 224.31 C 159.67 222.63 159.57 220.96 159.34 219.31 C 157.55 219.67 154.74 218.74 154.11 221.11 C 154.30 221.64 154.69 222.69 154.88 223.22 C 155.64 223.28 157.16 223.42 157.92 223.49 C 157.79 225.29 155.50 224.88 154.32 224.38 Z" />
<path fill="#aaabaa" d=" M 49.84 218.71 C 51.79 218.65 54.91 218.32 55.32 220.95 C 55.17 223.64 52.10 224.53 49.86 224.42 C 49.84 222.51 49.84 220.61 49.84 218.71 Z" />
<path fill="#aaabaa" d=" M 55.86 218.81 C 56.73 218.76 58.45 218.67 59.31 218.63 C 58.32 220.47 58.50 222.57 59.13 224.50 C 58.34 224.45 56.78 224.36 55.99 224.32 C 55.92 222.48 55.87 220.65 55.86 218.81 Z" />
<path fill="#91928f" d=" M 60.61 220.80 C 62.86 217.94 67.05 219.84 70.14 219.07 C 68.13 220.27 68.21 222.52 68.22 224.59 C 65.56 224.98 66.89 221.77 66.55 220.43 C 64.99 220.11 62.45 219.90 62.05 221.99 C 62.87 222.75 63.69 223.52 64.51 224.28 C 62.36 225.12 59.35 223.18 60.61 220.80 Z" />
<path fill="#f9ff7d" d=" M 171.48 218.52 C 173.45 218.51 175.43 218.51 177.41 218.53 C 177.42 220.51 177.46 222.50 177.53 224.50 C 175.57 224.75 173.60 224.84 171.63 224.87 C 171.43 222.76 171.41 220.64 171.48 218.52 Z" />
<path fill="#e2e2e0" d=" M 52.11 220.38 C 55.35 220.67 50.53 223.40 52.11 220.38 Z" />
<path fill="#f9f9f8" d=" M 144.18 220.12 C 145.71 218.93 146.90 221.85 145.69 222.80 C 144.11 224.04 143.05 221.10 144.18 220.12 Z" />
<path fill="#a10015" d=" M 167.84 232.74 C 171.93 232.70 176.02 232.63 180.11 232.68 C 180.11 239.92 180.23 247.15 180.04 254.39 C 175.97 254.47 171.90 254.50 167.84 254.43 C 167.87 247.20 167.86 239.97 167.84 232.74 Z" />
<path fill="#91928f" d=" M 45.67 259.47 C 46.09 259.34 46.94 259.08 47.37 258.95 C 50.54 259.40 53.74 259.61 56.95 259.59 C 93.86 259.80 130.78 259.82 167.69 259.61 C 171.29 260.14 175.18 259.14 178.54 260.85 C 174.38 261.38 170.19 261.16 166.02 261.26 C 131.36 261.25 96.69 261.27 62.03 261.25 C 56.56 261.11 50.85 261.56 45.67 259.47 Z" />
</svg>
