<?xml version="1.0" encoding="utf-8"?>
<!-- Generator: Adobe Illustrator 17.0.0, SVG Export Plug-In . SVG Version: 6.00 Build 0)  -->
<!DOCTYPE svg PUBLIC "-//W3C//DTD SVG 1.1//EN" "http://www.w3.org/Graphics/SVG/1.1/DTD/svg11.dtd">
<svg version="1.1" id="Layer_1" xmlns="http://www.w3.org/2000/svg" xmlns:xlink="http://www.w3.org/1999/xlink" x="0px" y="0px"
	 width="1171.555px" height="1559.281px" viewBox="0 0 1171.555 1559.281" enable-background="new 0 0 1171.555 1559.281"
	 xml:space="preserve">
<path fill-rule="evenodd" clip-rule="evenodd" fill="#2B2A29" d="M966.095,1419.566l-205.738-134.62
	c-7.525,11.277-20.727,23.145-38.347,34.928c-26.284,17.576-62.563,35.162-104.504,50.42
	c-43.371,15.778-92.776,29.111-143.442,37.394c-45.383,7.419-91.788,10.788-135.791,8.237
	c-46.889-2.718-91.297-11.424-131.552-24.024c-23.402-7.325-45.406-15.968-65.684-25.517l159.583,109.446
	c31.861,20.556,71.096,39.197,115.423,53.072c39.851,12.474,83.799,21.091,130.179,23.78c43.584,2.527,89.575-0.815,134.573-8.171
	c50.308-8.224,99.363-21.463,142.424-37.128c41.521-15.106,77.376-32.474,103.285-49.799
	C946.202,1444.412,960.05,1431.386,966.095,1419.566z M1107.073,464.795c-10.972-39.141-31.22-74.355-58.937-103.753
	c-10.534-11.172-22.168-21.524-34.791-30.954l0.175-0.175L847.281,192.744c26.497,32.556,46.035,70.777,57.001,112.967
	c11.279,43.394,13.49,90.968,4.882,140.869c-0.083,0.483-0.169,0.965-0.255,1.448c-13.744,79.546-27.57,159.673-41.485,240.32
	c-9.314,53.984-18.67,108.201-28.067,162.633c-12.545,72.662-25.174,145.777-37.877,219.326
	c-11.397,65.982-22.854,132.314-34.365,198.982c-0.608,3.523-1.917,7.147-3.876,10.848l205.051,134.17
	c0.384-1.204,0.681-2.393,0.883-3.566c11.511-66.668,22.969-133,34.365-198.982c12.703-73.549,25.333-146.664,37.877-219.326
	c9.397-54.432,18.753-108.649,28.067-162.633C1082.079,756.792,1132.609,555.889,1107.073,464.795z M707.723,102.859l-0.279-0.097
	l0.1-0.101c-7.314-8.097-15.139-15.766-23.44-22.973l-25.212-19.452c-14.707-10.061-30.547-18.845-47.378-26.2
	c-37.889-16.557-80.793-25.882-127.069-26.27c-46.135-0.387-91.483,7.981-134.231,23.419c-44.675,16.134-86.518,40-123.461,69.674
	c-36.726,29.5-68.664,65.001-93.558,104.717c-23.95,38.21-41.393,80.33-50.32,124.766c-9.032,44.718-8.609,87.852-0.036,127.597
	c8.868,41.111,26.46,78.585,51.33,110.424c25.259,32.338,58.045,59.029,96.814,77.951c37.213,18.162,79.926,29.161,126.773,31.12
	h0.011c47.382,2.051,94.491-5.365,139.12-20.544c46.36-15.768,90.035-39.916,128.554-70.531
	c38.583-30.667,71.885-67.776,97.449-109.318c24.588-39.958,42.007-84.003,50.068-130.346c7.99-45.936,6.058-89.77-4.234-129.722
	c-10.705-41.558-30.462-78.947-57.508-110.161C710.065,105.483,708.901,104.166,707.723,102.859z M197.943,647.834
	c6.795,12.012,14.426,23.491,22.845,34.369c26.846,34.689,61.736,63.293,103.035,83.605c39.717,19.534,85.373,31.41,135.519,33.667
	c50.737,2.223,101.222-5.677,149.051-21.916c49.584-16.834,96.307-42.63,137.493-75.399
	c41.285-32.847,76.916-72.587,104.249-117.062c26.023-42.344,44.514-88.969,53.19-138.004l0.442-2.557l0.001,0
	c8.252-48.709,6.04-95.104-4.955-137.409c-11.554-44.453-32.806-84.415-61.802-117.823c-9.034-10.409-18.841-20.183-29.357-29.259
	l-10.009-8.259c-17.14-13.519-35.969-25.28-56.248-35.042l42.966,33.145l0.294,0.215c17.38,12.746,33.141,27.245,47.047,43.258
	c19.834,22.84,35.966,48.836,47.774,77.272c5.208,12.542,9.574,25.559,13.046,38.99c10.892,42.134,12.978,88.316,4.609,136.647
	c-1.108,6.401-2.385,12.759-3.825,19.071c-9.543,41.825-26.267,81.589-48.682,118.079c-26.781,43.599-61.684,82.525-102.166,114.709
	c-34.29,27.263-72.481,49.612-112.99,65.852c-7.218,2.894-14.509,5.593-21.865,8.092c-46.923,15.94-96.486,23.711-146.371,21.558
	c-3.769-0.162-7.512-0.38-11.228-0.653c-44.929-3.297-86.018-14.592-122.166-32.328c-1.068-0.524-2.148-1.077-3.237-1.655
	l-0.012,0.035c-19.785-10.001-49.45-30.946-66.012-44.573l0.021-0.021L197.943,647.834z M135.885,579.451
	c-13.657,67.412-27.409,135.354-41.25,203.737c-7.456,36.838-14.939,73.805-22.446,110.886
	c-12.1,59.769-24.295,119.962-36.56,180.508c-9.659,47.68-19.363,95.58-29.099,143.662l0.026,0.005
	c-3.233,15.896,3.394,34.877,18.067,54.652c15.03,20.256,38.432,41.214,68.328,60.506c31.866,20.563,71.112,39.212,115.452,53.09
	c39.851,12.474,83.799,21.091,130.179,23.78c43.584,2.527,89.575-0.815,134.573-8.171c50.308-8.224,99.363-21.463,142.424-37.128
	c41.521-15.105,77.376-32.474,103.285-49.799c24.742-16.545,40.254-32.859,42.668-46.843c11.511-66.668,22.969-133,34.365-198.982
	c12.703-73.549,25.333-146.664,37.877-219.326c9.397-54.432,18.753-108.649,28.067-162.633
	c10.247-59.39,20.447-118.499,30.6-177.301c-9.682,27.193-22.321,53.303-37.481,77.971
	c-27.671,45.025-63.749,85.262-105.555,118.524c-41.69,33.169-88.992,59.283-139.199,76.329
	c-48.465,16.455-99.647,24.459-151.111,22.204c-50.942-2.294-97.354-14.373-137.755-34.243
	c-42.099-20.706-77.664-49.863-105.028-85.222c-12.933-16.711-24.043-34.809-33.158-54.06l-36.257-39.81
	C143.101,587.782,139.428,583.668,135.885,579.451z M1063.532,897.581c52.388-45.513,90.307-106.991,102.124-174.928
	c12.143-69.808-5.496-133.387-43.66-180.195c-0.007,0.223-2.355-53.788-9.476-79.191c-11.221-40.032-31.926-76.043-60.266-106.1
	c-9.489-10.064-19.849-19.474-31.004-28.16L811.574,155.962c-23.132-20.008-49.631-36.694-78.855-49.41
	c-3.243-1.411-6.519-2.773-9.828-4.084L687.634,75.27c-21.657-18.77-46.477-34.449-73.862-46.416
	c-38.56-16.85-82.212-26.34-129.284-26.735c-46.819-0.393-92.824,8.094-136.18,23.751c-45.293,16.357-87.691,40.534-125.099,70.582
	c-37.189,29.872-69.549,65.853-94.798,106.134c-24.305,38.777-42.009,81.532-51.073,126.648
	c-9.193,45.516-8.763,89.422-0.036,129.878c9.049,41.951,27.014,80.208,52.415,112.728c1.093,1.4,2.201,2.789,3.321,4.168
	l-2.131-0.426c-13.84,68.318-27.779,137.182-41.809,206.499c-7.456,36.838-14.939,73.805-22.446,110.886
	c-12.1,59.769-24.295,119.962-36.56,180.508c-9.86,48.674-19.767,97.576-29.708,146.669l0.126,0.025
	c-2.228,16.858,4.835,36.237,19.573,56.099c15.425,20.788,39.326,42.224,69.778,61.879l207.607,142.382l0.001-0.002l0.065,0.046
	c32.265,20.821,71.98,39.696,116.825,53.733c40.255,12.6,84.663,21.305,131.552,24.024c44.003,2.551,90.408-0.818,135.791-8.237
	c50.666-8.282,100.071-21.616,143.442-37.394c41.941-15.258,78.22-32.843,104.503-50.42c26.023-17.402,42.412-34.988,45.104-50.585
	c11.511-66.668,22.969-133,34.365-198.982c12.703-73.549,25.333-146.664,37.877-219.326
	C1052.522,961.375,1058.034,929.439,1063.532,897.581z M827.43,197.061c18.675,21.505,34.003,45.865,45.442,72.46
	c5.724,13.307,10.474,27.173,14.182,41.521c10.691,41.356,12.73,86.736,4.498,134.278c-1.227,7.089-2.664,14.126-4.305,21.104
	c-9.487,40.36-25.767,78.754-47.449,114.053c-26.425,43.019-60.882,81.442-100.859,113.225
	c-33.282,26.461-70.279,48.233-109.507,64.195c-7.796,3.172-15.681,6.115-23.642,8.819c-46.288,15.724-95.156,23.392-144.311,21.27
	c-5.467-0.236-10.878-0.59-16.232-1.06c-42.18-3.705-80.808-14.605-114.926-31.345c-1.297-0.637-2.588-1.281-3.873-1.935l0,0
	c-18.97-9.651-47.91-30.132-63.852-43.204l-0.006,0.006l-74.812-83.198c12.716,9.038,26.315,17.127,40.722,24.159
	c37.873,18.484,81.342,29.678,129.021,31.673v0.001c48.112,2.083,95.917-5.438,141.179-20.832
	c46.983-15.981,91.238-40.446,130.26-71.461c39.104-31.081,72.853-68.686,98.755-110.781c24.949-40.545,42.63-85.269,50.821-132.36
	c8.126-46.713,6.147-91.343-4.345-132.07c-10.502-40.766-29.53-77.598-55.486-108.679c0.448,0.174,0.896,0.349,1.344,0.526
	l60.561,46.726C797.93,166.769,813.616,181.154,827.43,197.061z"/>
<path fill="none" stroke="#2B2A29" stroke-width="0.216" stroke-miterlimit="22.9256" d="M966.095,1419.566l-205.738-134.62
	c-7.525,11.277-20.727,23.145-38.347,34.928c-26.284,17.576-62.563,35.162-104.504,50.42
	c-43.371,15.778-92.776,29.111-143.442,37.394c-45.383,7.419-91.788,10.788-135.791,8.237
	c-46.889-2.718-91.297-11.424-131.552-24.024c-23.402-7.325-45.406-15.968-65.684-25.517l159.583,109.446
	c31.861,20.556,71.096,39.197,115.423,53.072c39.851,12.474,83.799,21.091,130.179,23.78c43.584,2.527,89.575-0.815,134.573-8.171
	c50.308-8.224,99.363-21.463,142.424-37.128c41.521-15.106,77.376-32.474,103.285-49.799
	C946.202,1444.412,960.05,1431.386,966.095,1419.566z M1107.073,464.795c-10.972-39.141-31.22-74.355-58.937-103.753
	c-10.534-11.172-22.168-21.524-34.791-30.954l0.175-0.175L847.281,192.744c26.497,32.556,46.035,70.777,57.001,112.967
	c11.279,43.394,13.49,90.968,4.882,140.869c-0.083,0.483-0.169,0.965-0.255,1.448c-13.744,79.546-27.57,159.673-41.485,240.32
	c-9.314,53.984-18.67,108.201-28.067,162.633c-12.545,72.662-25.174,145.777-37.877,219.326
	c-11.397,65.982-22.854,132.314-34.365,198.982c-0.608,3.523-1.917,7.147-3.876,10.848l205.051,134.17
	c0.384-1.204,0.681-2.393,0.883-3.566c11.511-66.668,22.969-133,34.365-198.982c12.703-73.549,25.333-146.664,37.877-219.326
	c9.397-54.432,18.753-108.649,28.067-162.633C1082.079,756.792,1132.609,555.889,1107.073,464.795z M707.723,102.859l-0.279-0.097
	l0.1-0.101c-7.314-8.097-15.139-15.766-23.44-22.973l-25.212-19.452c-14.707-10.061-30.547-18.845-47.378-26.2
	c-37.889-16.557-80.793-25.882-127.069-26.27c-46.135-0.387-91.483,7.981-134.231,23.419c-44.675,16.134-86.518,40-123.461,69.674
	c-36.726,29.5-68.664,65.001-93.558,104.717c-23.95,38.21-41.393,80.33-50.32,124.766c-9.032,44.718-8.609,87.852-0.036,127.597
	c8.868,41.111,26.46,78.585,51.33,110.424c25.259,32.338,58.045,59.029,96.814,77.951c37.213,18.162,79.926,29.161,126.773,31.12
	h0.011c47.382,2.051,94.491-5.365,139.12-20.544c46.36-15.768,90.035-39.916,128.554-70.531
	c38.583-30.667,71.885-67.776,97.449-109.318c24.588-39.958,42.007-84.003,50.068-130.346c7.99-45.936,6.058-89.77-4.234-129.722
	c-10.705-41.558-30.462-78.947-57.508-110.161C710.065,105.483,708.901,104.166,707.723,102.859z M197.943,647.834
	c6.795,12.012,14.426,23.491,22.845,34.369c26.846,34.689,61.736,63.293,103.035,83.605c39.717,19.534,85.373,31.41,135.519,33.667
	c50.737,2.223,101.222-5.677,149.051-21.916c49.584-16.834,96.307-42.63,137.493-75.399
	c41.285-32.847,76.916-72.587,104.249-117.062c26.023-42.344,44.514-88.969,53.19-138.004l0.442-2.557l0.001,0
	c8.252-48.709,6.04-95.104-4.955-137.409c-11.554-44.453-32.806-84.415-61.802-117.823c-9.034-10.409-18.841-20.183-29.357-29.259
	l-10.009-8.259c-17.14-13.519-35.969-25.28-56.248-35.042l42.966,33.145l0.294,0.215c17.38,12.746,33.141,27.245,47.047,43.258
	c19.834,22.84,35.966,48.836,47.774,77.272c5.208,12.542,9.574,25.559,13.046,38.99c10.892,42.134,12.978,88.316,4.609,136.647
	c-1.108,6.401-2.385,12.759-3.825,19.071c-9.543,41.825-26.267,81.589-48.682,118.079c-26.781,43.599-61.684,82.525-102.166,114.709
	c-34.29,27.263-72.481,49.612-112.99,65.852c-7.218,2.894-14.509,5.593-21.865,8.092c-46.923,15.94-96.486,23.711-146.371,21.558
	c-3.769-0.162-7.512-0.38-11.228-0.653c-44.929-3.297-86.018-14.592-122.166-32.328c-1.068-0.524-2.148-1.077-3.237-1.655
	l-0.012,0.035c-19.785-10.001-49.45-30.946-66.012-44.573l0.021-0.021L197.943,647.834z M135.885,579.451
	c-13.657,67.412-27.409,135.354-41.25,203.737c-7.456,36.838-14.939,73.805-22.446,110.886
	c-12.1,59.769-24.295,119.962-36.56,180.508c-9.659,47.68-19.363,95.58-29.099,143.662l0.026,0.005
	c-3.233,15.896,3.394,34.877,18.067,54.652c15.03,20.256,38.432,41.214,68.328,60.506c31.866,20.563,71.112,39.212,115.452,53.09
	c39.851,12.474,83.799,21.091,130.179,23.78c43.584,2.527,89.575-0.815,134.573-8.171c50.308-8.224,99.363-21.463,142.424-37.128
	c41.521-15.105,77.376-32.474,103.285-49.799c24.742-16.545,40.254-32.859,42.668-46.843c11.511-66.668,22.969-133,34.365-198.982
	c12.703-73.549,25.333-146.664,37.877-219.326c9.397-54.432,18.753-108.649,28.067-162.633
	c10.247-59.39,20.447-118.499,30.6-177.301c-9.682,27.193-22.321,53.303-37.481,77.971
	c-27.671,45.025-63.749,85.262-105.555,118.524c-41.69,33.169-88.992,59.283-139.199,76.329
	c-48.465,16.455-99.647,24.459-151.111,22.204c-50.942-2.294-97.354-14.373-137.755-34.243
	c-42.099-20.706-77.664-49.863-105.028-85.222c-12.933-16.711-24.043-34.809-33.158-54.06l-36.257-39.81
	C143.101,587.782,139.428,583.668,135.885,579.451z M1063.532,897.581c52.388-45.513,90.307-106.991,102.124-174.928
	c12.143-69.808-5.496-133.387-43.66-180.195c-0.007,0.223-2.355-53.788-9.476-79.191c-11.221-40.032-31.926-76.043-60.266-106.1
	c-9.489-10.064-19.849-19.474-31.004-28.16L811.574,155.962c-23.132-20.008-49.631-36.694-78.855-49.41
	c-3.243-1.411-6.519-2.773-9.828-4.084L687.634,75.27c-21.657-18.77-46.477-34.449-73.862-46.416
	c-38.56-16.85-82.212-26.34-129.284-26.735c-46.819-0.393-92.824,8.094-136.18,23.751c-45.293,16.357-87.691,40.534-125.099,70.582
	c-37.189,29.872-69.549,65.853-94.798,106.134c-24.305,38.777-42.009,81.532-51.073,126.648
	c-9.193,45.516-8.763,89.422-0.036,129.878c9.049,41.951,27.014,80.208,52.415,112.728c1.093,1.4,2.201,2.789,3.321,4.168
	l-2.131-0.426c-13.84,68.318-27.779,137.182-41.809,206.499c-7.456,36.838-14.939,73.805-22.446,110.886
	c-12.1,59.769-24.295,119.962-36.56,180.508c-9.86,48.674-19.767,97.576-29.708,146.669l0.126,0.025
	c-2.228,16.858,4.835,36.237,19.573,56.099c15.425,20.788,39.326,42.224,69.778,61.879l207.607,142.382l0.001-0.002l0.065,0.046
	c32.265,20.821,71.98,39.696,116.825,53.733c40.255,12.6,84.663,21.305,131.552,24.024c44.003,2.551,90.408-0.818,135.791-8.237
	c50.666-8.282,100.071-21.616,143.442-37.394c41.941-15.258,78.22-32.843,104.503-50.42c26.023-17.402,42.412-34.988,45.104-50.585
	c11.511-66.668,22.969-133,34.365-198.982c12.703-73.549,25.333-146.664,37.877-219.326
	C1052.522,961.375,1058.034,929.439,1063.532,897.581z M827.43,197.061c18.675,21.505,34.003,45.865,45.442,72.46
	c5.724,13.307,10.474,27.173,14.182,41.521c10.691,41.356,12.73,86.736,4.498,134.278c-1.227,7.089-2.664,14.126-4.305,21.104
	c-9.487,40.36-25.767,78.754-47.449,114.053c-26.425,43.019-60.882,81.442-100.859,113.225
	c-33.282,26.461-70.279,48.233-109.507,64.195c-7.796,3.172-15.681,6.115-23.642,8.819c-46.288,15.724-95.156,23.392-144.311,21.27
	c-5.467-0.236-10.878-0.59-16.232-1.06c-42.18-3.705-80.808-14.605-114.926-31.345c-1.297-0.637-2.588-1.281-3.873-1.935l0,0
	c-18.97-9.651-47.91-30.132-63.852-43.204l-0.006,0.006l-74.812-83.198c12.716,9.038,26.315,17.127,40.722,24.159
	c37.873,18.484,81.342,29.678,129.021,31.673v0.001c48.112,2.083,95.917-5.438,141.179-20.832
	c46.983-15.981,91.238-40.446,130.26-71.461c39.104-31.081,72.853-68.686,98.755-110.781c24.949-40.545,42.63-85.269,50.821-132.36
	c8.126-46.713,6.147-91.343-4.345-132.07c-10.502-40.766-29.53-77.598-55.486-108.679c0.448,0.174,0.896,0.349,1.344,0.526
	l60.561,46.726C797.93,166.769,813.616,181.154,827.43,197.061z"/>
<path fill-rule="evenodd" clip-rule="evenodd" fill="#2B2A29" d="M223.745,442.268c24.325-65.65,65.556-135.451,111.287-188.831
	l-50.864,182.049l-0.348,0.012l-1.392,0.049l-0.233,0.011L223.745,442.268z M416.046,658.653c25.626-3.09,50.872-8.951,75.332-17.27
	c43.971-14.956,85.396-37.859,121.931-66.897c36.595-29.086,68.181-64.284,92.427-103.685
	c23.32-37.897,39.841-79.671,47.486-123.622c6.223-35.773,6.099-70.201,0.452-102.349c-34.399,0.975-68.24,6.88-100.727,16.973
	c-50.004,15.535-96.799,40.993-137.483,73.672c-7.729,6.208-15.241,12.69-22.514,19.427l0.553,0.375l-0.24,0.954l-42.066,166.901
	l-2,4.857l-31.356,2.366l-4.256,0.321l0-0.006l-31.18,2.978l-0.855,0.082l-0.208-0.111c-0.913,3.237-1.78,6.49-2.6,9.757
	c-2.425,14.001-3.276,24.122-2.553,30.366l0.853,0.402l6.072,2.865l15.312,7.226l4.243,2.002l27.601,13.024l1.058,0.499
	l-0.294,1.134L416.046,658.653z M232,627.71c2.373,1.246,4.771,2.462,7.195,3.645c35.292,17.224,75.798,27.655,120.226,29.513h0.011
	c17.954,0.777,35.867,0.12,53.605-1.867l14.968-57.684l-26.543-12.525l-4.243-2.002l-15.312-7.225l-6.072-2.865L262.032,523
	l-2.281,7.954L232,627.71z M197.575,606.179c10.022,7.389,20.66,14.135,31.868,20.172l27.583-96.172l2.223-7.751h-52.868
	c-1.246,6.487-2.36,12.972-3.345,19.45c-1.051,6.916-1.947,13.767-2.688,20.549c-0.85,7.773-1.507,15.501-1.973,23.178
	C197.956,592.529,197.689,599.389,197.575,606.179z M479.663,20.118c44.683,0.375,86.12,9.383,122.723,25.379
	c37.972,16.593,70.749,40.704,96.563,70.497c26.206,30.245,45.352,66.483,55.729,106.766c9.959,38.663,11.838,81.028,4.125,125.37
	c-7.775,44.7-24.558,87.153-48.239,125.637c-24.585,39.954-56.618,75.647-93.734,105.147
	c-37.037,29.438-79.042,52.659-123.636,67.827c-42.962,14.612-88.338,21.75-134.006,19.773v-0.001
	c-45.259-1.894-86.523-12.52-122.474-30.067c-37.53-18.317-69.289-44.182-93.78-75.536c-24.115-30.873-41.169-67.192-49.76-107.017
	c-8.283-38.404-8.693-80.082,0.035-123.289c8.603-42.824,25.408-83.407,48.478-120.213c23.965-38.234,54.68-72.386,89.978-100.738
	c35.506-28.52,75.748-51.467,118.738-66.993C391.556,27.8,435.223,19.745,479.663,20.118z M406.057,505.775l-93.561-49.219
	l-29.09-15.303l-0.154-0.081l-0.45,0.016l-50.847,5.837l150.774,80.916l30.381-2.902l0.056-0.011l4.256-0.321l21.533-1.625
	l-18.334-9.645l-1.397-0.735L406.057,505.775z"/>
<path d="M564.016,1221.367c0.594-2.612,1.093-5.379,1.509-8.356c0.373-2.978,0.461-5.487,0.265-7.498
	c-0.165-2.149-0.768-3.9-1.731-5.225c-0.901-1.42-2.326-2.054-4.281-2.083c-3.172-0.048-6.362,1.921-9.326,5.947
	c-3.036,3.98-5.487,9.594-7.299,16.816C550.092,1221.102,557.032,1221.234,564.016,1221.367L564.016,1221.367 M568.342,1247.716
	c-3.104,5.41-6.646,9.699-10.559,12.927c-3.938,3.167-7.973,4.651-12.08,4.54c-3.675-0.1-6.613-1.155-8.945-3.154
	c-2.246-1.995-3.845-4.724-4.871-8.075c-1.03-3.335-1.441-7.279-1.313-11.695c0.144-4.47,0.767-9.15,1.887-14.097
	c0.998-4.408,2.47-8.794,4.346-13.033c1.88-4.256,4.141-8.09,6.659-11.505c2.512-3.196,5.251-5.862,8.27-7.832
	c3.017-1.958,6.162-2.943,9.379-2.897c3.347,0.047,5.942,0.905,8.012,2.536c2.002,1.548,3.41,3.787,4.316,6.521
	c0.791,2.651,1.139,5.714,1.072,9.274c-0.151,3.532-0.688,7.421-1.632,11.568c-0.348,1.531-0.694,3.047-1.039,4.564
	c-10.016-0.202-20.031-0.404-30.004-0.604c-1.029,4.54-1.648,8.616-1.953,12.268c-0.221,3.655-0.132,6.914,0.53,9.756
	c0.56,2.702,1.691,4.819,3.237,6.447c1.562,1.56,3.666,2.45,6.305,2.518c2.726,0.07,5.369-0.84,7.77-2.792
	c2.429-1.882,5.163-5.283,8.145-10.357c0.852,1.041,1.703,2.082,2.555,3.123C568.342,1247.716,568.342,1247.716,568.342,1247.716z"
	/>
<path d="M526.115,1229.267c0.842,1.668,1.401,3.621,1.512,5.831c0.196,2.211-0.091,4.828-0.806,7.977
	c-1.427,6.312-4.106,11.412-8.091,15.366c-3.927,3.907-8.397,5.771-13.196,5.641c-2.638-0.071-4.818-0.808-6.642-2.366
	c-1.841-1.487-3.045-2.902-3.737-4.081c-0.643,1.503-1.283,2.994-1.879,4.484c-1.168-0.031-2.292-0.061-3.373-0.09
	c1.553-7.859,3.196-15.731,4.84-23.602c0.996,0.023,1.993,0.045,3.076,0.069c-0.155,1.833-0.099,3.906,0.126,6.384
	c0.241,2.41,0.658,4.604,1.353,6.543c0.707,2.077,1.661,3.831,3.026,5.304c1.294,1.39,2.912,2.125,4.945,2.179
	c2.855,0.075,5.291-0.888,7.343-2.833c2.021-2.015,3.408-4.88,4.258-8.632c0.433-1.918,0.591-3.578,0.438-5.024
	c-0.208-1.391-0.71-2.622-1.371-3.746c-0.766-1.042-1.718-2.033-2.989-2.962c-1.289-0.845-2.706-1.705-4.253-2.569
	c-1.191-0.704-2.565-1.563-4.078-2.769c-1.43-1.191-2.609-2.527-3.485-4.051c-0.948-1.593-1.586-3.593-1.868-6.013
	c-0.301-2.337-0.118-5.078,0.604-8.277c1.249-5.549,3.658-10.239,7.217-14.044c3.573-3.851,7.613-5.712,12.133-5.649
	c1.739,0.025,3.442,0.394,5.072,1.094c1.713,0.716,3.003,1.564,3.945,2.602c0.592-1.265,1.274-2.542,1.912-3.82
	c1.086,0.015,2.13,0.03,3.216,0.045c-1.444,7.348-2.886,14.669-4.283,22.005c-1.085-0.019-2.126-0.038-3.211-0.057
	c0.495-4.882-0.01-8.823-1.367-11.876c-1.386-3.135-3.566-4.675-6.563-4.72c-2.433-0.037-4.587,0.815-6.41,2.72
	c-1.782,1.904-3.045,4.216-3.648,6.884c-0.463,2.063-0.631,3.772-0.42,5.156c0.067,1.438,0.498,2.619,1.194,3.585
	c0.753,0.911,1.679,1.827,2.84,2.664c1.174,0.783,2.604,1.778,4.428,2.768c1.734,1.002,3.38,2.197,4.818,3.542
	C524.224,1226.261,525.371,1227.74,526.115,1229.267L526.115,1229.267"/>
<path d="M500.404,1166.049c-0.585,2.604-1.674,4.914-3.192,6.821c-1.58,1.975-3.142,2.918-4.795,2.9
	c-1.523-0.017-2.628-0.934-3.331-2.848c-0.718-1.858-0.809-3.97-0.273-6.35c0.567-2.53,1.64-4.782,3.189-6.633
	c1.562-1.892,3.067-2.772,4.592-2.76c1.656,0.012,2.895,0.914,3.582,2.703C500.881,1161.604,500.927,1163.733,500.404,1166.049
	L500.404,1166.049"/>
<path d="M398.483,1212.765c1.163-5.243,1.435-9.405,0.746-12.58c-0.66-3.12-2.274-4.684-4.751-4.721
	c-1.304-0.02-2.563,0.353-3.757,1.212c-1.106,0.86-2.212,2.112-3.135,3.729c-0.89,1.456-1.709,3.183-2.357,5.318
	c-0.723,2.079-1.312,4.16-1.801,6.364c-1.097,4.946-1.349,9.031-0.659,12.205c0.705,3.108,2.17,4.747,4.381,4.793
	c2.427,0.052,4.675-1.443,6.762-4.568C395.897,1221.459,397.425,1217.523,398.483,1212.765L398.483,1212.765 M394.292,1268.812
	c0.551-2.47,0.622-4.559,0.247-6.186c-0.364-1.694-1.252-2.776-2.631-3.424c-0.777-0.223-2.375-0.47-4.839-0.739
	c-2.421-0.268-5.288-0.479-8.575-0.567c-3.279,0.86-5.751,2.389-7.536,4.557c-1.784,2.155-3.067,5.011-3.851,8.544
	c-0.338,1.518-0.46,3.056-0.34,4.479c0.065,1.476,0.546,2.829,1.318,4.057c0.726,1.227,1.859,2.195,3.337,2.987
	c1.52,0.78,3.503,1.248,5.92,1.323c4.187,0.132,7.752-1.032,10.749-3.56C391.075,1277.82,393.131,1274.036,394.292,1268.812
	L394.292,1268.812z M484.542,1261.678c-7.136-0.191-14.228-0.38-21.277-0.569c0.334-1.49,0.667-2.979,1.004-4.482
	c0.708-0.051,1.372-0.101,2.181-0.218c0.708-0.051,1.403-0.24,1.983-0.499c0.914-0.376,1.76-1.042,2.333-2.045
	c0.635-1.084,1.14-2.366,1.508-4.008c1.56-6.936,3.126-13.9,4.687-20.85c1.561-6.95,3.087-13.928,4.653-20.892
	c0.336-1.505,0.411-2.809,0.294-4.033c-0.157-1.238-0.494-2.259-1.048-3.091c-0.485-0.557-1.159-1.047-2.199-1.475
	c-0.432-0.213-0.966-0.358-1.413-0.502c-0.598,0.334-1.224,0.804-1.911,1.342c-1.74,1.343-3.227,3.499-4.505,6.274
	c-2.984,6.705-5.846,13.052-8.531,19.002c-2.596,5.949-5.588,12.681-8.903,20.101c-1.007,2.347-2.146,4.909-3.315,7.607
	c-1.082,2.686-2.192,5.316-3.185,7.812c-1.297-0.035-2.551-0.069-3.805-0.102c-0.107-8.273-0.193-16.54-0.281-24.8
	c-0.089-8.269-0.18-16.531-0.293-24.788c-3.79,8.182-7.593,16.351-11.36,24.53c-3.752,8.145-7.557,16.297-11.288,24.437
	c-1.168-0.032-2.378-0.064-3.546-0.095c0.086-10.148,0.183-20.152,0.292-30.011c0.079-9.933-0.064-17.501,0.035-24.802
	c-0.039-4.125-2.796-5.443-5.167-5.968c-1.65-0.026-3.344-0.052-5.038-0.079c-0.03,0.135-0.06,0.27-0.09,0.418
	c0.61,1.96,0.957,4.118,0.97,6.408c-0.002,2.371-0.206,4.657-0.702,6.884c-1.313,5.899-3.963,10.768-7.866,14.807
	c-3.926,3.954-7.968,5.883-11.954,5.795c-1.776-0.039-3.466-0.076-5.199-0.114c-0.739,0.389-1.523,0.979-2.422,1.878
	c-0.916,0.992-1.543,2.248-1.9,3.86c-0.369,1.667-0.346,2.937,0.024,3.811c0.413,0.888,0.972,1.51,1.809,1.854
	c0.733,0.424,1.598,0.648,2.708,0.743c1.111,0.094,2.206,0.256,3.332,0.284c1.284,0.098,2.942,0.275,5.105,0.53
	c2.162,0.256,3.633,0.496,4.585,0.519c1.269,0.167,2.552,0.66,3.641,1.637c1.147,0.91,2.092,2.142,2.814,3.791
	c0.781,1.758,1.257,3.728,1.429,5.893c0.215,2.168-0.08,4.853-0.797,8.069c-0.717,3.217-1.818,6.205-3.352,9.002
	c-1.534,2.784-3.365,5.162-5.639,7.172c-2.418,2.072-5.108,3.619-8.049,4.721c-2.843,1.062-6.254,1.535-10.18,1.408
	c-6.343-0.206-10.81-1.811-13.312-4.84c-2.506-3.01-3.102-7.378-1.868-12.958c1.018-4.601,2.978-8.15,5.773-10.76
	c2.867-2.53,6.046-3.918,9.637-4.026c0.069-0.309,0.137-0.618,0.208-0.941c-0.733-0.425-1.525-0.973-2.3-1.6
	c-0.775-0.628-1.39-1.387-1.864-2.197c-0.528-0.945-0.884-2.089-1.035-3.374c-0.197-1.274-0.101-2.891,0.312-4.757
	c0.531-2.39,1.581-4.578,3.107-6.555c1.471-1.924,3.457-3.607,5.992-5.024c0.074-0.336,0.149-0.672,0.223-1.008
	c-2.287-2.06-3.877-4.711-4.698-7.884c-0.767-3.224-0.705-6.849,0.225-11.049c1.392-6.294,4.005-11.397,7.849-15.379
	c3.858-4.027,8.171-5.989,12.822-5.924c1.347,0.018,2.519,0.238,3.736,0.646c0.635,0.293,1.226,0.774,1.95,0.852
	c3.778,0.46,11.079,0.565,15.685,0.631c0.348,0.004,0.652,0.009,0.956,0.013c4.65,0.067,9.343,0.134,14.08,0.202
	c-0.351,1.572-0.702,3.144-1.054,4.716c-0.971,0.054-2.059,0.24-3.294,0.697c-1.192,0.458-1.92,1.18-2.147,2.208
	c-0.045,0.203-0.092,0.61-0.139,1.207c-0.034,0.543-0.012,1.223-0.032,1.902c-0.14,4.741-0.284,10.069-0.377,15.957
	c-0.138,5.89-0.304,13.471-0.53,22.867c3.606-7.96,7.233-15.931,10.872-23.923c3.633-7.981,7.235-15.998,10.9-24.011
	c1.39,0.02,2.824,0.041,4.258,0.062c0.098,7.943,0.151,15.892,0.246,23.832c0.094,7.945,0.187,15.898,0.322,23.842
	c2.663-6.048,5.182-11.855,7.716-17.528c2.489-5.662,4.76-10.934,6.885-15.937c0.434-1.17,0.85-2.245,1.281-3.196
	c0.447-1.02,0.745-1.96,0.96-2.915c0.181-0.805,0.132-1.559-0.236-2.249c-0.297-0.621-0.801-1.108-1.388-1.595
	c-0.488-0.35-1.122-0.633-1.684-0.847c-0.708-0.147-1.199-0.291-1.503-0.296c0.324-1.445,0.649-2.89,0.973-4.334
	c4.215,0.06,8.474,0.121,12.733,0.183c5.32-0.199,10.597-0.398,15.917-0.597c0.1,0.331,0.246,0.65,0.392,0.968
	c-2.078,9.235-4.153,18.457-6.225,27.665c-2.072,9.208-4.142,18.402-6.211,27.597c-0.366,1.63-0.442,2.937-0.296,4.03
	c0.202,1.038,0.583,1.862,1.384,2.365c0.513,0.426,1.129,0.787,1.672,1.063c0.544,0.291,1.206,0.446,1.969,0.534
	C485.213,1258.688,484.878,1260.183,484.542,1261.678L484.542,1261.678z"/>
<path d="M361.643,1257.179c-4.743,0.401-9.396,0.788-14.049,1.175c-0.143-0.34-0.285-0.68-0.428-1.021
	c0.613-2.782,1.185-5.578,1.802-8.36c-0.086-0.002-0.173-0.005-0.26-0.006c-0.897,1.107-1.941,2.277-3.083,3.512
	c-1.102,1.249-2.358,2.412-3.66,3.386c-1.516,1.156-2.933,2.059-4.23,2.602c-1.271,0.636-3.016,0.858-5.222,0.798
	c-3.632-0.098-5.993-2.012-7.094-5.913c-1.076-3.817-0.806-9.393,0.75-16.662c2.309-10.49,4.619-20.994,6.931-31.51
	c0.349-1.584,0.523-2.971,0.324-4.043c-0.142-1.151-0.504-2.078-1.023-2.888c-0.404-0.54-0.924-0.949-1.651-1.214
	c-0.68-0.277-1.519-0.423-2.33-0.502c0.325-1.476,0.65-2.952,0.974-4.428c4.755-0.426,9.471-0.852,14.229-1.279
	c0.147,0.323,0.296,0.633,0.446,0.956c-1.685,7.639-3.372,15.306-5.053,22.945c-1.679,7.626-3.362,15.265-5.04,22.878
	c-1.05,4.76-1.189,8.362-0.372,10.782c0.86,2.409,2.184,3.704,4.088,3.753c1.514,0.04,2.987-0.326,4.328-1.084
	c1.373-0.704,2.56-1.534,3.615-2.57c0.942-0.918,1.855-1.903,2.651-2.946c0.827-0.989,1.478-1.968,1.988-2.896
	c1.377-6.233,2.758-12.479,4.137-18.726c1.379-6.246,2.762-12.506,4.145-18.779c0.337-1.525,0.441-2.785,0.302-3.928
	c-0.171-1.197-0.529-2.155-1.047-2.968c-0.403-0.543-1.07-0.875-2.04-1.024c-1.013-0.15-2.128-0.234-3.329-0.319
	c0.327-1.482,0.655-2.965,0.983-4.447c5.19-0.408,10.385-0.83,15.623-1.266c0.146,0.325,0.295,0.649,0.444,0.96
	c-1.896,8.774-3.839,17.561-5.773,26.308c-1.934,8.747-3.872,17.508-5.803,26.241c-0.34,1.54-0.402,2.805-0.292,3.885
	c0.199,1.07,0.555,2.022,1.085,2.763c0.404,0.536,0.892,0.885,1.598,1.038c0.648,0.219,1.498,0.307,2.305,0.395
	C362.288,1254.255,361.966,1255.717,361.643,1257.179L361.643,1257.179"/>
<path d="M315.665,1257.165c-6.703-0.193-13.406-0.371-20.11-0.55c0.316-1.431,0.631-2.875,0.95-4.332
	c0.664-0.05,1.327-0.1,2.134-0.212c0.678-0.115,1.356-0.231,1.846-0.485c0.909-0.377,1.573-1.026,2.178-1.997
	c0.665-1.05,1.111-2.279,1.474-3.937c2.771-12.639,5.547-25.292,8.324-37.957c2.777-12.666,5.565-25.371,8.307-38.077
	c0.347-1.578,0.465-3.106,0.377-4.489c-0.115-1.476-0.45-2.528-1.016-3.344c-0.362-0.534-1.163-1.059-2.455-1.535
	c-1.219-0.409-2.206-0.682-2.961-0.821c0.318-1.457,0.635-2.9,0.955-4.37c5.247-0.438,10.628-0.89,15.965-1.356
	c0.101,0.347,0.246,0.68,0.39,1.014c-3.317,15.102-6.63,30.19-9.935,45.239c-3.307,15.061-6.605,30.098-9.903,45.107
	c-0.346,1.581-0.45,2.846-0.276,3.826c0.085,1.004,0.518,1.803,1.181,2.354c0.504,0.482,1.08,0.83,1.598,1.044
	c0.547,0.281,1.21,0.432,1.931,0.518C316.301,1254.266,315.983,1255.715,315.665,1257.165L315.665,1257.165"/>
<path d="M294.096,1201.432c1.418-2.113,2.516-4.336,3.353-6.565c0.764-2.296,1.384-4.343,1.787-6.18
	c0.548-2.498,0.892-5.079,1.121-7.714c0.185-2.648,0.023-4.89-0.459-6.869c-0.468-2.058-1.411-3.723-2.735-4.861
	c-1.35-1.205-3.225-1.805-5.533-1.828c-1.959-0.019-3.918-0.039-5.833-0.058c-1.514,6.943-3.027,13.873-4.536,20.79
	c-1.509,6.917-3.019,13.847-4.527,20.764c1.389,0.025,2.777,0.05,4.209,0.075c2.995,0.053,5.581-0.63,7.779-2.115
	C290.904,1205.462,292.695,1203.65,294.096,1201.432L294.096,1201.432 M310.304,1185.532c-1.085,4.941-2.646,9.289-4.702,13.098
	c-2.009,3.807-4.424,6.875-7.099,9.339c-2.674,2.475-5.318,4.205-8.095,5.348c-2.759,1.05-5.535,1.593-8.354,1.541
	c-2.212-0.042-4.381-0.083-6.594-0.125c-2.063,9.459-4.126,18.919-6.184,28.352c-0.341,1.568-0.455,2.889-0.364,4.057
	c0.088,1.194,0.507,2.067,1.405,2.739c0.361,0.341,1.255,0.629,2.409,0.924c1.197,0.296,2.337,0.459,3.36,0.551
	c-0.345,1.583-0.687,3.154-1.029,4.711c-8.39-0.223-16.693-0.447-24.997-0.668c0.339-1.55,0.679-3.113,1.021-4.689
	c0.706-0.048,1.658-0.222,2.955-0.386c1.298-0.165,2.191-0.472,2.782-0.788c0.905-0.558,1.696-1.398,2.271-2.441
	c0.63-1.082,1.118-2.525,1.487-4.222c2.45-11.246,4.903-22.492,7.354-33.751c2.457-11.285,4.913-22.557,7.331-33.856
	c0.328-1.499,0.539-2.882,0.508-4.135c-0.035-1.239-0.443-2.179-1.3-2.847c-0.973-0.537-1.877-0.994-2.835-1.201
	c-0.987-0.273-1.859-0.479-2.541-0.552c0.341-1.563,0.682-3.139,1.027-4.714c8.884,0.079,17.769,0.158,26.697,0.237
	c5.487,0.049,9.511,2.191,12.027,6.444C311.342,1172.824,311.852,1178.459,310.304,1185.532L310.304,1185.532z"/>
<path fill-rule="evenodd" clip-rule="evenodd" fill="#2B2A29" d="M186.13,1230.916c5.96-3.622,11.273-10.304,15.124-18.471
	c3.854-8.174,6.296-17.876,6.464-27.545c0.123-6.433-0.805-13.265-2.76-17.955c-1.959-4.88-4.929-8.931-8.667-11.025
	c-1.795-1-3.382-1.53-5.494-1.857c-4.131-0.678-8.707,0.503-12.813,2.359c-1.689,0.749-4.158,2.098-5.638,3.299
	c-2.747,2.235-3.628,2.679-6.424,5.557c-0.445,0.448-0.945,0.946-1.289,1.329c-2.591,2.94-4.522,5.241-6.926,8.928
	c-6.696,10.112-11.206,22.346-13.489,34.565c-2.282,12.215-2.348,24.438-0.163,34.574c0.186,0.962,1.331,5.365,1.777,6.335
	c0.356,0.981,0.815,1.886,1.085,2.865c0.415,1.112,0.828,1.823,1.271,2.807c1.388,3.059,4.007,6.661,6.568,9.11
	c11.814,11.178,30.001,6.65,45.343-7.224c0.86-0.762,5.467-5.391,6.183-6.288c0.484-0.617,0.727-0.937,1.185-1.449
	c1.286-1.526,0.974-1.088,2.417-2.938c0.736-0.99,1.518-1.993,2.3-2.995c2.073-2.937,4.718-6.924,6.585-10.315
	c3.004-5.439,5.832-11.363,8.197-17.551c2.364-6.187,4.318-12.703,5.612-19.287c-0.345,0.584-2.004,6.441-2.515,7.795
	c-4.322,12.123-9.246,21.801-15.912,31.269c-1.429,1.984-2.318,3.077-3.647,4.799c-1.443,1.851-2.591,2.923-3.878,4.449
	c-0.53,0.641-1.344,1.392-2.004,2.03c-11.774,11.628-23.843,16.993-35.387,14.458c-5.931-1.339-10.732-5.903-13.524-10.948
	c-2.545-4.565-4.227-9.417-5.108-14.95c-0.882-5.535-0.962-11.766-0.304-19.132c0.423-4.423,1.902-12.351,3.425-16.819
	c2.96-8.965,5.529-13.627,10.045-20.063c2.066-2.919,4.415-5.346,6.743-7.451c1.305-1.2,2.86-2.36,4.371-3.301
	c7.019-4.25,13.382-5.03,18.706-0.775c1.622,1.38,2.859,3.341,3.893,5.418c1.566,3.267,2.615,8.508,2.662,13.96
	c-0.059,4.933-1.037,10.881-2.77,16.1c-6.839,20.021-25.884,27.618-27.834,8.294c-0.587-6.4,1.499-15.523,6.035-20.622
	c0.298-0.371,0.557-0.562,0.944-0.944c5.862-6.178,12.632-4.009,12.633,5.11c0.019,16.112-15.431,22.141-13.509,6.698
	c-1.642,6.236,0.638,11.43,4.897,10.862c6.251-0.713,11.638-11.166,11.336-20.495c-0.257-8.736-5.039-13.263-11.476-10.908
	c-7.347,2.752-14.772,13.797-16.127,28.256c-1.034,11.327,2.79,20.5,9.538,22.523C177.689,1234.55,182.225,1233.288,186.13,1230.916
	L186.13,1230.916"/>
<path fill-rule="evenodd" clip-rule="evenodd" d="M550.751,526.905c0.624-0.023,1.251-0.032,1.878-0.027
	c2.87,0.024,5.627,0.346,8.244,0.934l0.284,0.323c2.953,3.408,5.11,7.489,6.278,12.022c1.126,4.372,1.335,9.18,0.457,14.228
	c-0.887,5.1-2.808,9.954-5.521,14.363c-2.827,4.595-6.511,8.7-10.776,12.09c-4.262,3.387-9.093,6.059-14.22,7.802
	c-4.236,1.44-8.67,2.248-13.147,2.304l-0.009,0c-1.056,0.039-2.116,0.036-3.176-0.01h-0.006c-4.406-0.184-8.479-1.098-12.124-2.61
	c-3.977-6.781-5.453-15.198-3.641-24.168c2.104-10.471,8.297-19.826,16.614-26.507C530.001,531.131,540.171,527.039,550.751,526.905
	 M551.392,517.594c-4.494-1.964-9.579-3.07-15.06-3.116c-5.432-0.046-10.766,0.938-15.79,2.752
	c-5.246,1.894-10.152,4.691-14.476,8.164c-4.299,3.453-8.043,7.618-10.969,12.287c-2.819,4.498-4.874,9.46-5.926,14.698
	c-1.072,5.306-1.021,10.424-0.004,15.141c1.059,4.911,3.165,9.392,6.142,13.204c3.024,3.871,6.94,7.063,11.562,9.318
	c4.413,2.154,9.479,3.459,15.035,3.692c5.587,0.241,11.133-0.63,16.377-2.414c5.437-1.849,10.558-4.68,15.072-8.268
	c4.526-3.598,8.433-7.95,11.43-12.821c2.894-4.702,4.946-9.896,5.897-15.37c0.945-5.437,0.713-10.642-0.513-15.401
	c-1.281-4.973-3.643-9.444-6.875-13.174C560.111,522.611,556.07,519.638,551.392,517.594z"/>
</svg>
